<?xml version="1.0" encoding="utf-8"?>
<!-- Generator: Adobe Illustrator 27.5.0, SVG Export Plug-In . SVG Version: 6.00 Build 0)  -->
<svg version="1.1" xmlns="http://www.w3.org/2000/svg" xmlns:xlink="http://www.w3.org/1999/xlink" x="0px" y="0px"
	 viewBox="0 0 500 500" style="enable-background:new 0 0 500 500;" xml:space="preserve">
<g id="BACKGROUND">
	<rect style="fill:#FFB8B6;" width="500" height="500"/>
</g>
<g id="OBJECTS">
	<g>
		<defs>
			<rect id="SVGID_1_" width="500" height="500"/>
		</defs>
		<clipPath id="SVGID_00000101098686947141182040000007346870497840362683_">
			<use xlink:href="#SVGID_1_"  style="overflow:visible;"/>
		</clipPath>
		<g style="clip-path:url(#SVGID_00000101098686947141182040000007346870497840362683_);">
			<g>
				<g>
					<path style="fill:#FFFFFF;" d="M285.064,239.206l-0.068,0.052l-0.054,0.107c-0.005,0.017-0.008,0.033-0.01,0.05l-0.067,0.166
						l0.143,0.095c0.053,0.045,0.129,0.091,0.233,0.141c0.839,0.403,1.825,0.479,2.695,0.546c0.807,0.06,1.662,0.119,2.47,0.119
						c0.573,0,1.088-0.029,1.573-0.088c0.699-0.085,1.397-0.243,2.071-0.395c0.305-0.069,0.401-0.124,0.462-0.196l0.027-0.032
						l0.015-0.039c0.022-0.056,0.028-0.121,0.028-0.289l0.009-2.33l0.001-0.195l-0.189-0.048c-2.709-0.695-5.483-1.556-8.243-2.56
						l-0.308-0.112l-0.027,0.326c-0.118,1.432-0.244,2.693-0.386,3.854c-0.024,0.195-0.056,0.461-0.214,0.68
						C285.188,239.112,285.131,239.155,285.064,239.206z"/>
					<path style="fill:#BA9F88;" d="M174.148,113.22c1.552,0,3.127,0.1,4.681,0.296c5.768,0.731,10.663,2.755,14.157,5.854
						c1.485,1.318,2.774,2.873,4.021,4.377c1.585,1.913,3.22,3.886,5.244,5.346c0.282,0.203,0.611,0.421,0.956,0.449
						c0.025,0.002,0.051,0.003,0.077,0.003c0.412,0,0.847-0.259,1.37-0.814c2.199-2.33,3.463-5.506,3.468-8.713
						c0.005-3.205-1.25-6.384-3.442-8.722c-1.222-1.303-2.789-2.44-4.932-3.579c-3.801-2.02-8.159-3.442-13.716-4.476l-0.128-0.024
						l-0.093,0.091c-0.139,0.136-0.329,0.214-0.523,0.214c-0.021,0-0.041-0.001-0.062-0.003c-1.833-0.152-3.614-0.228-5.294-0.228
						c-10.443,0-17.925,2.929-22.239,8.705c-1.455,1.948-2.568,4.27-3.308,6.901l-0.192,0.683l0.578-0.412
						C160.154,115.332,167.036,113.22,174.148,113.22z"/>
					<path style="fill:#0B1011;" d="M281.824,241.54c2.816,0.131,5.703,0.195,8.825,0.195c1.748,0,3.597-0.021,5.497-0.063
						c2.193-0.043,4.537-0.127,7.166-0.255c0.727-0.033,1.45-0.06,2.171-0.087c1.63-0.061,3.315-0.123,4.981-0.258
						c5.303-0.39,9.936-1.021,14.163-1.928c1.074-0.23,2.161-0.497,3.232-0.792l-0.119-0.485c-4.58,0.989-9.372,1.49-14.245,1.49
						c-3.155,0-6.45-0.225-9.793-0.67l-0.283-0.038v0.286l0,1.122c0,0.095,0,0.273-0.129,0.412
						c-0.109,0.115-0.254,0.142-0.332,0.156c-1.275,0.236-2.589,0.356-3.906,0.356c-1.462,0-2.917-0.146-4.323-0.434
						c-0.034-0.007-0.069-0.027-0.11-0.064l-0.105-0.094l-0.135,0.04c-0.082,0.025-0.158,0.042-0.22,0.056
						c-0.701,0.158-1.407,0.316-2.12,0.403c-0.507,0.063-1.042,0.093-1.638,0.093c-0.824,0-1.689-0.06-2.504-0.121
						c-0.914-0.071-1.95-0.15-2.874-0.593c-0.175-0.085-0.356-0.187-0.484-0.365c-0.029-0.039-0.051-0.091-0.074-0.145l-0.091-0.21
						l-0.217,0.072c-1.252,0.416-2.595,0.618-4.106,0.618c-1.414,0-2.816-0.168-3.88-0.315c-0.828-0.114-1.757-0.296-2.299-1.003
						c-0.062-0.08-0.119-0.175-0.18-0.299l-0.111-0.225l-0.224,0.111c-0.439,0.217-0.826,0.358-1.22,0.443
						c-0.5,0.107-1.04,0.159-1.651,0.159c-0.645,0-1.305-0.058-1.873-0.113c-1.326-0.129-2.733-0.292-4.063-0.736
						c-0.161-0.053-0.43-0.142-0.617-0.355c-0.207-0.235-0.252-0.544-0.284-0.77l-0.158-1.098l-0.077-0.535l-0.358,0.405
						c-0.212,0.24-0.41,0.445-0.605,0.627c-0.315,0.292-0.745,0.653-1.275,0.844c-0.465,0.167-0.943,0.188-1.431,0.196
						c-0.124,0.002-0.248,0.003-0.371,0.003c-0.785,0-1.61-0.04-2.451-0.118l-0.092,0.489c3.278,0.938,6.791,1.68,10.742,2.27
						C271.981,240.876,276.642,241.309,281.824,241.54z"/>
					<path style="fill:#E2C597;" d="M329.016,245.12l0.02-0.016c0.071-0.058,0.137-0.099,0.203-0.124l0.115-0.044l0.016-0.006
						l0.033-0.018l2.696-1.031c3.217-1.618,4.358-5.592,4.754-7.818l0.061-0.345l-0.346,0.055c-0.349,0.055-0.701,0.103-1.054,0.147
						l-0.048,0.006l-0.042,0.023c-1.137,0.629-2.369,1.191-3.767,1.717c-2.145,0.776-4.412,1.415-6.927,1.952
						c-1.177,0.251-2.429,0.486-3.829,0.718l-0.061,0.01l-0.049,0.037c-4.498,3.407-9.449,5.134-14.716,5.134
						c-4.255,0-8.697-1.15-12.845-3.326l-0.056-0.029l-0.063,0.001c-0.747,0.007-1.494,0.011-2.241,0.011
						c-3.233,0-6.198-0.067-9.065-0.204c-5.197-0.239-9.872-0.679-14.293-1.343c-5.309-0.799-9.88-1.876-13.974-3.294
						c-5.072-1.781-9.008-3.944-12.032-6.614l-0.053-0.046l-0.069-0.012l-0.08-0.017l-0.059-0.013l-0.74-0.156l0.501,0.566
						c0.619,0.701,1.203,1.314,1.785,1.876c2.897,2.787,6.487,5.317,10.974,7.736c6.848,3.678,14.869,6.657,25.243,9.377
						l3.273,0.822l3.303,0.749c0.964,0.202,2.001,0.461,3.268,0.818l3.267,0.886l6.53,1.771c0.353,0.089,0.697,0.185,1.039,0.281
						c0.727,0.204,1.479,0.415,2.224,0.519c0.97,0.149,1.992,0.225,3.032,0.225l0.292-0.002c2.315-0.035,4.503-0.471,6.504-1.294
						c0.907-0.382,1.789-0.852,2.949-1.574l2.9-1.742c3.967-2.342,7.698-4.421,11.404-6.356L329.016,245.12z M303.406,252.674
						c2.324,0,4.589-0.41,6.733-1.219c0.029-0.011,0.058-0.016,0.088-0.016c0.103,0,0.197,0.065,0.234,0.162
						c0.024,0.063,0.021,0.131-0.006,0.191c-0.027,0.061-0.077,0.107-0.14,0.131c-1.941,0.63-3.955,0.947-6,0.947
						c-1.451,0-2.895-0.162-4.291-0.482C301.134,252.573,302.271,252.674,303.406,252.674z"/>
					<path style="fill:#FFFFFF;" d="M302.712,240.163l0.206-0.037v-0.21l0-1.109l0-0.216l-0.214-0.031
						c-1.2-0.176-2.303-0.361-3.371-0.565c-1.267-0.243-2.59-0.532-3.933-0.859l-0.308-0.075l-0.001,0.317l-0.008,2.068
						c0,0.109-0.018,0.243-0.048,0.369l-0.062,0.257l0.26,0.048c1.275,0.236,2.581,0.355,3.882,0.355
						C300.333,240.475,301.543,240.37,302.712,240.163z"/>
					<path style="fill:#E2C597;" d="M330.458,236.189c-4.407-0.067-9.102-0.887-13.954-2.439
						c-7.116-2.275-14.011-5.919-19.552-8.847c-4.553-2.405-9.385-4.985-13.998-7.755c-0.805-0.484-1.608-0.975-2.411-1.467
						c-3.831-2.346-7.792-4.773-12.074-6.308c-1.992-0.714-5.082-1.566-8.494-1.566c-2.71,0-5.199,0.54-7.396,1.604
						c-1.955,0.946-3.703,2.33-5.393,3.668c-0.871,0.69-1.766,1.4-2.696,2.055l-0.605,0.428c-1.985,1.412-3.859,2.746-6.201,2.746
						c-0.43,0-0.877-0.045-1.327-0.133l-0.276-0.054l-0.021,0.281c-0.144,1.892,0.247,4.009,1.1,5.959
						c0.888,2.036,2.284,3.951,4.149,5.694l0.005,0.005l0.035,0.03l0.052,0.043l0.095,0.036c0.219,0.037,0.449,0.056,0.684,0.056
						c1.072,0,2.217-0.378,3.141-1.038c1.001-0.714,1.801-1.621,2.648-2.582c0.559-0.635,1.138-1.292,1.778-1.881
						c2.261-2.081,5.359-3.274,8.501-3.274c0.741,0,1.479,0.068,2.192,0.201c2.895,0.54,5.477,2.081,7.973,3.572l0.727,0.434
						c9.995,5.925,20.186,9.911,30.29,11.849c4.68,0.897,9.405,1.352,14.044,1.352c5.909,0,11.644-0.732,17.046-2.175
						L330.458,236.189z"/>
					<path style="fill:#12D1FF;" d="M332.063,236.973l0.355-0.145l0.169-0.068c0.097-0.038,0.193-0.077,0.289-0.117l-0.109-0.48
						c-0.086,0.004-0.173,0.005-0.26,0.007l-0.215,0.004l-0.335,0.011l0.107,0.318l0.01,0.029c0.001,0.017,0,0.039,0,0.057
						L332.063,236.973z"/>
					<path style="fill:#E2C597;" d="M319.718,277.559c6.195-9.213,7.481-19.482,8.843-30.355l0.111-0.884l0.06-0.476l-0.424,0.223
						c-3.332,1.755-6.71,3.635-10.039,5.588l-0.072,0.042l-0.032,0.077c-3.434,8.148-11.45,10.276-11.979,10.408
						c-11.13-0.098-28.279-10.785-31.606-12.928l-0.031-0.02l-0.035-0.01c-8.347-2.416-15-5.031-20.936-8.228
						c-4.515-2.443-8.129-4.998-11.048-7.812c-1.473-1.426-2.738-2.911-3.759-4.413l-0.269-0.396l-0.171,0.448
						c-1.943,5.09-10.762,31.385,6.513,49.168c1.364,0.973,2.874,1.881,4.65,2.804c10.096,5.236,21.502,7.617,31.327,9.256
						c5.293,0.882,9.686,1.469,13.923,1.469c6.938,0,12.346-1.66,17.019-5.226c2.059-1.571,3.991-3.514,5.906-5.938
						C318.357,279.488,319.028,278.573,319.718,277.559z M304.349,264.137c-1.293,6.132-0.744,12.706,1.561,18.516
						c0.025,0.062,0.024,0.13-0.003,0.191c-0.026,0.061-0.075,0.109-0.137,0.133c-0.03,0.012-0.061,0.018-0.092,0.018
						c-0.103,0-0.194-0.062-0.232-0.158C303.266,276.901,302.877,270.263,304.349,264.137z"/>
					<path style="fill:#F7E5B4;" d="M174.265,303.938l-0.192,0.155c-2.305,1.861-6.361,5.811-5.216,7.446l0.017,0.024l0.001,0.001
						c8.19,11.982,19.908,22.795,34.841,32.159c6.578,4.114,13.685,7.899,21.123,11.249c3.511,1.569,7.283,3.199,11.086,4.491
						c3.931,1.344,7.805,2.407,11.514,3.161c5.858,1.21,11.839,1.824,17.773,1.824c1.997,0,4.016-0.07,6-0.209
						c9.076-0.633,16.653-2.362,23.163-5.285c3.793-1.709,7.175-3.832,10.051-6.309c3.018-2.581,5.567-5.645,7.574-9.106
						c1.951-3.381,3.371-7.114,4.22-11.094c0.827-3.914,1.096-7.735,0.8-11.356l-0.007-0.083l-0.055-0.062
						c-0.091-0.104-0.148-0.203-0.174-0.306l-1.024-4.096l-0.037-0.147l-0.147-0.036l-8.893-2.166l-0.484-0.118l0.194,0.458
						l3.025,7.13c0.051,0.086,0.079,0.133,0.107,0.18c0.037,0.062,0.074,0.125,0.116,0.186c0.081,0.12,0.118,0.266,0.111,0.447
						l-0.001,0.026l0.004,0.025c0.017,0.1,0.019,0.185,0.005,0.259c-5.017,27.421-29.081,30.381-39.195,30.381
						c-2.426,0-4.02-0.17-4.314-0.205c-50.67-0.848-87.766-43.926-91.829-48.835L174.265,303.938z"/>
					<path style="fill:#FFFFFF;" d="M276.668,230.285l-0.308-0.15l-0.049,0.339l-0.618,4.261c-0.103,0.713-0.22,1.52-0.605,2.217
						c-0.201,0.363-0.502,0.703-0.922,1.041l-0.139,0.112l0.06,0.168c0.049,0.137,0.109,0.25,0.183,0.345
						c0.427,0.558,1.241,0.712,1.97,0.812c1.044,0.144,2.421,0.309,3.806,0.309c1.662,0,3.086-0.235,4.353-0.718
						c0.206-0.08,0.345-0.149,0.422-0.255c0.077-0.106,0.102-0.265,0.124-0.447c0.162-1.326,0.3-2.709,0.411-4.108l0.015-0.187
						l-0.176-0.066C282.271,232.855,279.402,231.62,276.668,230.285z"/>
					<path style="fill:#898989;" d="M423.804,503.14c-5.53-13.93-10.87-41.88-16.52-71.47c-6.61-34.61-13.45-70.41-20.77-83.33
						c-5.88-10.39-19.71-16.88-33.48-20.89c-16.11-4.69-32.12-6-35.18-6.22l-0.29-0.02l0.02,0.29c0.26,3.52-0.01,7.25-0.79,11.07
						c-0.84,4.04-2.26,7.84-4.23,11.29c-2.03,3.54-4.61,6.68-7.67,9.32c-2.92,2.54-6.35,4.72-10.2,6.48
						c-6.58,2.99-14.25,4.78-23.42,5.47c-2.15,0.16-4.33,0.24-6.5,0.24c-5.86,0-11.76-0.59-17.54-1.75
						c-3.76-0.75-7.68-1.8-11.66-3.14c-3.64-1.22-7.11-2.67-11.2-4.47c-7.5-3.34-14.68-7.11-21.32-11.22
						c-7.18-4.45-13.7-9.29-19.37-14.36c-6.04-5.42-11.26-11.24-15.54-17.31l-0.13-0.18l-0.19,0.1l-23.52,12.47
						c-0.08,0.04-0.17,0.07-0.26,0.08c-0.4,0.05-40.01,5.5-51.19,39.88c-11.07,34.06-8.65,72.53-7.5,76.97l0.03,0.09l0.08,0.05
						c0.63,0.42,0.35,1.94-0.7,7.59c-0.98,5.27-2.62,14.09-5.05,29.33l-3.9,23.5l-0.05,0.29h0.29l98.87-0.02h0.24l0.01-0.23
						l1.89-37.37l0.96-18.91l0.47-9.46l0.24-4.73l0.06-1.18c0.01-0.18,0.03-0.41,0.05-0.59l0.06-0.58l0.17-1.85l0.05-0.5
						c0.37-4.86,0.59-9.67,0.64-14.43v-0.07c0.08-7.93-0.3-15.68-1.13-23.18c-0.73-6.54-1.86-12.77-3.36-18.52
						c-0.73-2.83-1.65-5.76-2.81-8.96c-1.1-2.93-2.39-5.81-3.82-8.56l-0.02-0.06c-0.9-2.07-2.06-4.33-3.45-6.72
						c-1.33-2.26-2.73-4.38-4.17-6.32c-3.24-4.37-6.76-8-10.48-10.77c-0.33-0.25-0.4-0.72-0.15-1.06c0.05-0.06,0.1-0.12,0.17-0.16
						c0.12-0.09,0.27-0.14,0.43-0.14c0.16,0,0.32,0.05,0.45,0.15c3.82,2.88,7.44,6.62,10.75,11.12c1.46,1.98,2.88,4.16,4.23,6.46
						c0.09,0.16,0.18,0.32,0.26,0.47c1.32,2.32,2.35,4.36,3.23,6.39c1.36,2.64,2.57,5.37,3.62,8.14c0.03,0.06,0.05,0.12,0.07,0.18
						c0.06,0.13,0.11,0.27,0.16,0.4c1.17,3.25,2.09,6.23,2.82,9.1c0.39,1.52,0.76,3.08,1.09,4.67c0.06,0.27,0.12,0.55,0.18,0.83
						c0.87,4.22,1.56,8.64,2.05,13.21c0.26,2.38,0.47,4.78,0.62,7.2c0.68,9.92,0.59,20.22-0.26,30.72l-0.01,0.12l0.09,0.08
						c0.76,0.7,2.08,1.82,4.02,3.19l0.06,0.05h0.01c12.94,8.23,28.5,12.88,43.82,13.09h1.11c15.17,0,30.06-4.12,43.05-11.92
						c0.04-0.02,0.08-0.03,0.13-0.03c0.09,0,0.17,0.04,0.21,0.12c0.04,0.06,0.05,0.12,0.03,0.19c-0.01,0.06-0.06,0.12-0.11,0.15
						c-12.97,7.69-27.79,11.76-42.88,11.76c-0.52,0-1.03-0.01-1.54-0.02c-3.49-0.06-7.07-0.37-10.66-0.9l-0.09-0.01l-0.08,0.04
						l-39.52,23.91l-0.11,0.07l-0.01,0.13l-0.95,16.16l-0.01,0.12l0.1,0.08l0.02,0.02l0.02,0.01l6.57,6.12
						c0.09,0.08,0.14,0.2,0.14,0.33l-0.16,12.2l-0.01,0.25h0.26l175.13-0.03h0.28l-0.04-0.29c-0.4-2.88-0.72-5.68-0.96-8.4
						c-0.26-2.9-0.43-5.72-0.5-8.43c-0.32-12.34,1.24-22.78,4.69-31.17l0.01-0.04l0.01-0.03l0.01-0.21c0.1-1.23,0.43-5.45,0.83-10.5
						v-0.07l-0.03-0.07c-3.21-5.59-13.56-9.07-16.65-10l-0.07-0.02l-0.07,0.02c-1.56,0.45-3.02,0.75-4.45,0.91
						c-1.02,0.12-2.08,0.19-3.15,0.19c-3.2,0-6.57-0.53-10.29-1.61c-4.23-1.22-8.23-2.92-12.66-4.86c4.45,1.88,8.46,3.55,12.7,4.73
						c3.61,1.01,6.88,1.51,9.99,1.51c1.15,0,2.29-0.07,3.37-0.21c4.02-0.5,8.25-2.05,12.59-4.61c3.78-2.23,7.33-4.99,10.37-7.4
						l0.08-0.07l0.01-0.1l0.04-0.42c0.01-0.06,0.02-0.13,0.05-0.2c0.13-0.35,13.44-35.54-0.55-70.82c-0.07-0.18-0.07-0.39,0.01-0.57
						c0.08-0.19,0.23-0.33,0.41-0.4c0.09-0.04,0.19-0.06,0.28-0.06c0.31,0,0.58,0.19,0.7,0.48c13.45,33.92,1.89,68.15,0.68,71.55
						c-0.04,0.1-0.06,0.18-0.08,0.23l-0.02,0.03v0.04l-0.02,0.29c-0.35,3.93-1.42,17.5-2.07,25.8l-0.09,1.13
						c-0.05,0.54-0.09,1.06-0.12,1.54l-0.04,0.47l-0.07,0.87l-0.06,0.76l-0.05,0.65l-0.1,1.27c-0.01,0.08-0.02,0.15-0.05,0.23
						c-4.89,11.79-5.95,27.82-3.15,47.64l0.03,0.22h0.21l37.77-0.01l24.92,0.25h0.37L423.804,503.14z"/>
					<path style="fill:#BA9F88;" d="M189.524,181.273c0.057,0.005,0.119,0.025,0.193,0.053l0.038,0.014l0.04,0.001
						c0.544,0.022,1.099,0.037,1.656,0.037c2.184,0,3.874-0.248,5.32-0.781c3.976-1.462,6.507-5.219,7.931-8.112
						c1.892-3.846,2.958-8.142,3.083-12.423c0.004-0.131,0.138-0.243,0.245-0.243c0.15,0.005,0.259,0.12,0.256,0.258
						c-0.116,3.935-1.033,7.939-2.654,11.58l-0.014,0.032l-0.005,0.034c-0.748,5.116-3.959,21.809-13.856,21.809
						c-0.337,0-0.684-0.02-1.031-0.059l-0.251-0.028l-0.026,0.251c-1.147,10.993-5.551,21.427-8.074,26.669l-0.296,0.614
						l0.623-0.277c3.243-1.444,6.992-1.67,7.15-1.679c0.305,0,0.559,0.139,0.693,0.372c0.143,0.247,0.135,0.548-0.02,0.787
						c-2.402,3.679-1.865,8.643-1.33,11.275l0.098,0.484l0.332-0.365c3.387-3.731,9.878-3.774,10.152-3.774
						c0.274,0,0.526,0.149,0.657,0.389c1.734,3.16,3.641,6.2,5.667,9.036l0.042,0.058l0.066,0.027
						c0.25,0.104,0.416,0.333,0.444,0.612l0.007,0.068l0.04,0.055c10.469,14.289,20.724,18.975,20.827,19.021
						c0.183,0.084,0.328,0.24,0.396,0.43c0.019,0.051,1.927,5.023,11.863,15.813l0.393-0.307
						c-12.527-19.082-2.483-43.984-2.081-44.958l0.022-0.038l0.062-0.123l-0.071-0.118c-0.936-1.557-2.032-3.668-2.217-6.198
						l0.002-0.041c-0.252-1.35-0.286-2.636-0.105-3.87l0.01-0.068l-0.026-0.064c-0.023-0.055-0.03-0.098-0.023-0.137
						c0.015-0.081,1.484-8.114,4.261-14.397c0.333-0.753,0.837-1.567,1.497-2.417l0.124-0.16l-0.131-0.155l-9.355-11.054
						c-0.044-0.053-0.066-0.123-0.057-0.191l1.719-14.318l0.019-0.157l-0.134-0.084c-2.101-1.326-20.646-13.494-24.707-32.025
						c-2.25-10.265,0.22-20.725,7.34-31.089c7.637-11.117,18.122-16.754,31.162-16.754c16.13,0,30.756,8.601,33.524,10.325
						l0.167,0.104l0.14-0.137c1.865-1.826,11.756-10.936,23.336-10.936c0.348,0,0.696,0.008,1.047,0.025
						c5.508,0.262,10.62,2.619,15.196,7.004l0.36-0.346c-1.19-1.346-2.844-2.914-4.917-4.661
						c-6.463-5.423-15.038-10.947-15.122-11.002c-0.17-0.11-0.29-0.287-0.33-0.485c-0.039-0.199,0.004-0.408,0.12-0.574
						c1.517-2.183,6.752-4.014,9.738-4.911l0.598-0.18l-0.557-0.283c-7.113-3.612-17.826-5.452-18.278-5.529
						c-0.232-0.037-0.432-0.179-0.542-0.379c-0.112-0.203-0.124-0.441-0.034-0.655c1.957-4.617,11.953-9.647,16.16-11.596
						l0.611-0.283l-0.648-0.184c-7.672-2.182-16.497-3.289-26.229-3.289c-23.001,0-43.785,6.196-44.658,6.46l-52.568,25.747
						l-0.179,0.088l0.046,0.194c0.903,3.832,1.451,11.863,1.552,13.434l0.012,0.194l0.191,0.036
						c5.559,1.043,9.929,2.475,13.754,4.508c2.193,1.165,3.802,2.334,5.063,3.679c2.278,2.429,3.582,5.733,3.577,9.065
						c-0.005,3.332-1.318,6.632-3.604,9.054c-0.447,0.474-0.867,0.767-1.284,0.893l-0.361,0.11l0.242,0.289
						c1.135,1.361,1.778,3.166,1.764,4.954c-0.009,2.162-1.028,4.254-2.726,5.595c-0.745,0.594-1.675,1.054-2.846,1.405
						c-0.468,0.152-0.954,0.256-1.425,0.356c-0.565,0.121-1.098,0.235-1.582,0.42c-0.932,0.34-1.579,1.204-2.162,2.059
						c-0.567,0.854-1.033,1.781-1.387,2.757c-0.549,1.511-1.051,3.788-0.329,6.057c0.09,0.301,0.213,0.571,0.342,0.855
						c0.083,0.183,0.172,0.377,0.258,0.596c0.07,0.194,0.141,0.499,0.07,0.805c-0.058,0.254-0.208,0.503-0.422,0.703
						c-0.349,0.32-0.786,0.541-1.413,0.714c-0.503,0.145-1.023,0.245-1.549,0.297c-0.272,0.026-0.55,0.039-0.825,0.039
						c-1.857,0-3.671-0.588-5.109-1.657c-1.683-1.251-2.89-3.133-3.313-5.162c0.454,2.015,1.672,3.874,3.357,5.101
						c0.875,0.638,1.884,1.094,2.998,1.354l0.214-0.438c-0.671-0.542-1.141-1.572-1.484-2.324l-0.027-0.059
						c-1.171-2.563-1.454-5.641-0.798-8.668c0.753-3.474,2.625-6.898,5.724-10.467c0.317-0.366,0.713-0.821,0.737-1.399
						c0.015-0.351-0.114-0.675-0.217-0.935c-2.901-7.309-7.519-13.993-13.356-19.332l-0.061-0.055l-0.082-0.009
						c-1.272-0.133-2.562-0.201-3.832-0.201c-7.476,0-14.594,2.333-20.041,6.57l-0.072,0.056l-0.019,0.089
						c-2.614,12.042,2.741,26.047,2.795,26.187C167.277,178.932,189.303,181.253,189.524,181.273z M190.479,90.695
						C190.479,90.695,190.478,90.695,190.479,90.695l0-0.125c-0.003,0-0.007-0.002-0.007-0.007c2.695-0.221,5.429-0.329,8.133-0.329
						c7.338,0,14.688,0.785,21.844,2.334c0.065,0.014,0.121,0.053,0.157,0.109c0.036,0.056,0.048,0.123,0.034,0.188
						c-0.025,0.114-0.127,0.197-0.244,0.197c-0.018,0-0.036-0.002-0.053-0.006c-7.651-1.786-15.523-2.691-23.4-2.691
						c-2.149,0-4.324,0.068-6.464,0.203L190.479,90.695L190.479,90.695z M162.345,150.67c4.218,12.777,14.74,23.367,27.474,27.631
						c0.131,0.044,0.202,0.186,0.158,0.317c-0.034,0.102-0.129,0.171-0.237,0.171c-0.027,0-0.054-0.004-0.079-0.013
						C176.88,174.318,166.414,163.55,162.345,150.67z M204.974,160.407c0.033,0,0.066,0.007,0.097,0.02
						c0.127,0.053,0.187,0.2,0.133,0.327c-0.822,1.833-1.669,3.724-2.839,5.443c-1.251,1.876-2.824,3.284-4.549,4.076
						c-1.321,0.626-2.854,0.956-4.435,0.956c-0.524,0-1.057-0.036-1.584-0.107c-2.055-0.288-3.999-1.192-5.471-2.543
						c1.504,1.305,3.45,2.163,5.493,2.408c0.443,0.05,0.891,0.076,1.331,0.076c1.642,0,3.218-0.354,4.558-1.024
						c1.658-0.802,3.161-2.204,4.344-4.054c1.118-1.714,1.954-3.685,2.692-5.424C204.782,160.467,204.873,160.407,204.974,160.407z
						 M242.886,63.407c3.758-0.992,7.748-1.49,11.865-1.49c3.401,0,6.893,0.34,10.381,1.011c6.801,1.308,13.861,3.916,20.986,7.75
						c0.121,0.065,0.167,0.217,0.102,0.339c-0.044,0.081-0.128,0.132-0.221,0.132c-0.041,0-0.081-0.01-0.118-0.03
						c-7.049-3.892-14.046-6.563-20.799-7.938c-3.658-0.744-7.319-1.122-10.884-1.122c-3.912,0-7.715,0.456-11.304,1.354l-0.002,0
						C242.893,63.412,242.888,63.412,242.886,63.407z"/>
					<path style="fill:#FFFFFF;" d="M252.039,235.851c0.679,0.374,1.447,0.562,2.176,0.709c1.69,0.343,3.427,0.517,5.163,0.517
						l0.361-0.002c0.425-0.006,0.873-0.024,1.268-0.167c0.448-0.162,0.825-0.48,1.104-0.74c1.455-1.354,2.49-3.307,2.915-5.501
						c0.371-1.917,0.304-4.05-0.201-6.339c-0.02-0.092,0.023-0.166,0.051-0.202l0.184-0.239l-0.269-0.137
						c-1.661-0.843-3.074-1.355-4.445-1.611c-0.681-0.126-1.384-0.19-2.09-0.19c-2.945,0-5.873,1.103-8.032,3.025l-0.056,0.05
						l-0.019,0.073c-0.476,1.794-1.015,3.828-0.868,5.843C249.405,232.65,250.195,234.837,252.039,235.851z"/>
					<path style="fill:#0B1011;" d="M248.818,226.402l-0.166,0.185c-0.104,0.116-0.208,0.231-0.31,0.346
						c-0.827,0.939-1.682,1.91-2.732,2.659c-0.843,0.601-1.876,0.994-2.908,1.105l-0.599,0.065l0.469,0.378
						c2.121,1.711,4.617,3.175,7.631,4.475l0.285-0.396c-0.981-1.096-1.587-2.602-1.706-4.242c-0.116-1.59,0.188-3.16,0.465-4.351
						L248.818,226.402z"/>
					<path style="fill:#FFFFFF;" d="M263.864,234.851l-0.076,0.115l0.057,0.126c0.015,0.033,0.025,0.055,0.027,0.064l0.274,1.908
						c0.03,0.212,0.063,0.398,0.164,0.512c0.081,0.092,0.219,0.15,0.399,0.21c1.287,0.431,2.659,0.588,3.953,0.713
						c0.684,0.067,1.256,0.111,1.821,0.111c0.579,0,1.086-0.049,1.55-0.149c1.19-0.255,2.144-0.894,2.618-1.751
						c0.341-0.614,0.446-1.339,0.547-2.04l0.658-4.538l0-0.001l0.011-0.042l0.039-0.189l-0.172-0.086
						c-2.423-1.213-4.664-2.433-6.851-3.73l-0.729-0.433c-0.768-0.459-1.589-0.946-2.424-1.404l-0.474-0.26l0.109,0.53
						c0.465,2.264,0.516,4.366,0.152,6.246C265.231,232.239,264.659,233.653,263.864,234.851z"/>
					<path style="fill:#BA9F88;" d="M294.905,331.805c2.183-0.072,4.532-0.729,7.204-2.008c1.739-0.848,3.46-1.87,5.115-3.038
						l0.073-0.051l0.024-0.086c0.395-1.41,0.684-2.621,0.909-3.811l0.014-0.074l-0.03-0.07l-0.119-0.281
						c-1.59-2.47-2.823-5.237-3.685-8.263l-0.139-0.487l-0.302,0.406c-1.409,1.891-5.498,6.29-13.026,6.29
						c-4.482,0-9.485-1.558-14.87-4.63c-4.402-2.511-9.024-4.934-13.495-7.277c-16.551-8.675-33.667-17.646-42.168-32.581
						c-8.631-15.162-12.314-29.383-13.497-34.794l-0.493,0.027c-2.831,26.435-23.106,63.744-25.408,67.911l-0.089,0.161l0.127,0.133
						c3.512,3.681,9.245,9.292,16.613,15.113l0.038,0.03l0.047,0.014l0.242,0.07l1.713,0.504l3.43,0.996
						c2.321,0.668,4.636,1.313,6.883,1.917c4.729,1.273,9.392,2.435,13.859,3.454c5.017,1.122,9.598,2.03,14.005,2.775
						c5.216,0.842,9.846,1.402,14.158,1.711c0.144,0.01,0.248,0.13,0.238,0.268c-0.009,0.13-0.119,0.232-0.249,0.232
						c-4.344-0.347-8.986-0.948-14.211-1.837c-4.404-0.783-8.984-1.731-13.999-2.897c-4.458-1.057-9.114-2.259-13.838-3.573
						c-2.234-0.621-4.544-1.285-6.867-1.975l-3.423-1.026l-0.647-0.196l-0.226,0.437c15.072,11.682,39.015,25.705,67.484,26.165
						c0.027,0.001,0.057,0.003,0.087,0.007c0.326,0.043,2.09,0.255,4.75,0.255c8.582,0,29.262-2.358,35.915-24.2l0.217-0.712
						l-0.603,0.437c-1.452,1.053-2.948,1.988-4.445,2.779c-2.719,1.404-5.035,2.127-7.286,2.277c0,0-0.001,0-0.001,0
						c-0.148,0-0.256-0.102-0.265-0.233C294.663,331.933,294.768,331.814,294.905,331.805z M289.811,339.412l-0.198,1.394
						c-0.036,0.138-0.069,0.303-0.103,0.467c-0.061,0.3-0.119,0.583-0.219,0.861c-0.262,0.955-0.705,1.81-1.287,2.492
						c-0.609,0.717-1.528,1.197-2.458,1.283c-0.174,0.018-0.343,0.027-0.511,0.027c-0.676,0-1.406-0.139-2.23-0.425
						c-1.506-0.543-2.97-1.379-4.743-2.71c-1.448-1.098-2.826-2.313-4.093-3.608c1.309,1.26,2.708,2.438,4.174,3.498
						c1.759,1.263,3.266,2.082,4.743,2.575c0.744,0.242,1.432,0.364,2.047,0.364c0.197,0,0.39-0.012,0.575-0.037
						c0.87-0.108,1.658-0.542,2.218-1.223c0.531-0.655,0.926-1.469,1.144-2.357c0.088-0.258,0.141-0.548,0.192-0.829
						c0.027-0.152,0.055-0.303,0.089-0.453l0.161-1.341c0.019-0.164,0.126-0.259,0.252-0.259c0.096,0.01,0.156,0.043,0.197,0.095
						C289.8,339.28,289.819,339.346,289.811,339.412z M262.359,329.817c-0.01,0.066-0.045,0.124-0.099,0.163
						c-0.043,0.032-0.094,0.049-0.148,0.049c-0.081,0-0.154-0.037-0.202-0.102c-5.34-7.543-9.39-15.848-12.041-24.688
						c2.814,8.769,6.996,16.978,12.444,24.392C262.353,329.685,262.369,329.751,262.359,329.817z"/>
					<g>
						<path style="fill:#E2C597;" d="M333.601,191.406l-0.051-0.094l-0.103-0.028c-0.943-0.257-1.949-0.387-2.991-0.387
							c-1.948,0-3.625,0.442-4.69,0.813c-0.866,0.508-1.692,0.984-2.511,1.456l-0.108,0.062c-2.338,1.328-4.88,2.668-7.624,3.475
							c-0.017,0.005-0.035,0.008-0.052,0.008c-0.081,0-0.153-0.054-0.176-0.132c-0.028-0.095,0.027-0.197,0.123-0.227
							c2.692-0.841,5.184-2.21,7.475-3.564l0.652-0.389c2.141-1.274,4.354-2.592,6.206-4.243c0.389-0.342,0.771-0.726,1.169-1.173
							l0.082-0.092l-0.023-0.121c-0.031-0.161-0.014-0.317,0.047-0.452c2.907-6.341,2.866-11.529-0.123-15.42
							c-0.722-0.941-1.596-1.776-2.598-2.484c-0.043-0.031-0.087-0.06-0.131-0.09l-0.082-0.056
							c-0.316-0.173-0.605-0.316-0.883-0.439c-1.642-0.739-3.519-1.114-5.578-1.114c-0.75,0-1.523,0.051-2.299,0.152
							c-2.482,0.323-5.084,1.138-7.733,2.422c-2.696,1.313-4.81,2.95-6.283,4.867c-0.144,0.189-0.362,0.296-0.598,0.296
							c-0.165,0-0.322-0.053-0.454-0.154c-0.329-0.251-0.393-0.722-0.142-1.051c1.66-2.082,3.974-3.821,6.888-5.183
							c2.839-1.316,5.514-2.103,8.177-2.406c0.703-0.079,1.409-0.118,2.1-0.118c0.921,0,1.83,0.071,2.701,0.21l0.419,0.067
							l-0.145-0.399c-0.455-1.256-0.928-3.267-1.296-5.516c-0.357-2.19-1.097-7.741-0.717-14.217l0.457-4.078l-0.017-0.32
							c0.545-3.883,1.494-7.418,2.84-10.496c4.678-10.686,0.727-21.152-1.189-25.156l-0.121-0.248l-0.031-0.064l-0.077-0.072
							c-0.033-0.021-0.053-0.037-0.066-0.053c-5.338-6.793-11.515-10.404-18.359-10.731c-0.354-0.018-0.708-0.026-1.059-0.026
							c-12.443,0-22.793,10.615-23.228,11.067c-0.048,0.05-0.113,0.078-0.182,0.078c-0.049,0-0.097-0.014-0.139-0.041
							c-0.156-0.104-15.948-10.446-33.54-10.447c-12.903,0-23.264,5.56-30.798,16.528c-7.039,10.247-9.483,20.575-7.264,30.699
							c4.266,19.466,24.542,31.749,24.747,31.871c0.085,0.051,0.132,0.147,0.12,0.245l-1.73,14.419l-0.013,0.108l0.07,0.083
							l9.097,10.75l0.189,0.223l0.191-0.221c3.779-4.375,10.431-8.542,13.116-10.131l0.222-0.131l-0.138-0.218
							c-0.693-1.09-1.258-2.225-1.681-3.372c-1.118-3.005-1.344-6.261-0.637-9.17c0.764-3.179,2.544-5.929,5.012-7.745
							c3.001-2.24,6.433-2.813,8.784-2.899c0.256-0.011,0.51-0.017,0.764-0.017c2.62,0,5.414,0.579,8.304,1.721
							c2.461,0.974,5.02,2.354,8.051,4.342c0.346,0.227,0.443,0.693,0.216,1.038c-0.139,0.212-0.374,0.339-0.628,0.339
							c-0.146,0-0.288-0.042-0.41-0.123c-2.932-1.97-5.392-3.333-7.75-4.296c-2.791-1.136-5.472-1.712-7.97-1.712
							c-0.179,0-0.356,0.003-0.533,0.009c-3.073,0.077-5.954,0.989-8.111,2.566c-2.233,1.6-3.929,4.167-4.653,7.041
							c-0.688,2.694-0.507,5.734,0.51,8.56c0.41,1.154,0.975,2.297,1.678,3.398l0.047,0.073l0.081,0.029
							c0.043,0.015,0.102,0.046,0.137,0.11c0.013,0.022,0.028,0.061,0.022,0.139l-0.007,0.088l0.05,0.073
							c0.825,1.196,1.798,2.29,2.892,3.249c2.137,1.904,4.744,3.1,7.684,4.358c2.742,1.152,5.591,2.132,8.472,2.914
							c0.19,0.051,0.302,0.247,0.251,0.437c-0.042,0.155-0.183,0.263-0.344,0.263c-0.03,0-0.06-0.004-0.09-0.011
							c-2.921-0.759-5.814-1.719-8.598-2.853c-2.313-0.962-4.557-1.942-6.561-3.337l-0.032-0.022l-0.037-0.012
							c-2.065-0.634-5.083-1.39-7.729-1.39c-0.68,0-1.31,0.05-1.875,0.15l-0.054,0.009l-0.045,0.031
							c-3.699,2.569-6.482,4.962-8.274,7.112l-0.037,0.045l-0.014,0.057c-0.015,0.061-0.039,0.105-0.073,0.135
							c-0.012,0.01-0.038,0.022-0.062,0.033l-0.056,0.025l-0.038,0.048c-0.682,0.86-1.197,1.681-1.532,2.439
							c-2.598,5.879-4.054,13.367-4.211,14.201l-0.046,0.244l0.244,0.048c0.41,0.08,0.817,0.121,1.212,0.121
							c2.196,0,3.924-1.228,5.924-2.651l0.609-0.431c0.914-0.643,1.805-1.35,2.667-2.033c1.714-1.356,3.485-2.758,5.492-3.731
							c2.264-1.096,4.841-1.652,7.659-1.652c2.766,0,5.666,0.536,8.618,1.594c4.322,1.549,8.308,3.99,12.162,6.35
							c0.805,0.494,1.607,0.984,2.411,1.467c4.598,2.761,9.425,5.338,13.974,7.741c4.821,2.547,10.821,5.717,17.061,7.984
							l0.686,0.249l-0.01-0.016l0.13,0.046c0.534,0.189,1.068,0.378,1.604,0.549c5.033,1.61,9.874,2.427,14.387,2.427
							c1.424,0,2.837-0.082,4.199-0.243l0.05-0.006l0.044-0.025c0.563-0.319,1.118-0.677,1.65-1.063l0.095-0.069l0.007-0.118
							l0.009-0.157c0.006-0.188,0.081-0.367,0.212-0.502C348.341,222.164,338.391,200.285,333.601,191.406z M305.586,185.544
							c2.275-1.659,4.07-3.964,5.807-6.194c3.052-3.918,5.935-7.619,11.068-7.623c0.147-0.007,0.282-0.011,0.416-0.011
							c2.082,0,4.468,0.879,4.924,3.347c0.316,2.972-0.56,5.669-2.606,7.999c-4.578,5.212-14.387,7.762-21.563,7.927l-0.061,0
							c-1.29,0-3.189-0.228-4.297-0.871c-0.366-0.212-0.539-0.59-0.464-1.011c0.063-0.348,0.333-0.787,0.89-0.882
							C301.615,187.898,303.595,186.996,305.586,185.544z M313.279,162.363l-0.04,0.113c-0.006,0-0.009,0.004-0.015,0.004
							c-0.004,0-0.009,0-0.013,0l0.017-0.122c-0.326-0.068-0.677-0.102-1.043-0.102c-0.962,0-1.932,0.229-2.754,0.453
							c-1.13,0.311-2.461,0.692-3.762,1.163c-1.45,0.532-2.579,1.063-3.553,1.672c-1.161,0.71-2.151,1.58-2.94,2.586l-0.009,0.006
							c-0.002,0-0.003-0.001-0.004-0.002c0.76-1.046,1.729-1.953,2.879-2.705c0.967-0.646,2.09-1.217,3.536-1.799
							c1.296-0.515,2.623-0.94,3.751-1.287c0.893-0.269,1.939-0.557,3.034-0.557c0.328,0,0.65,0.027,0.958,0.079
							c0.066,0.011,0.123,0.047,0.162,0.102c0.039,0.054,0.054,0.121,0.043,0.187C313.504,162.276,313.401,162.363,313.279,162.363z
							 M273.829,163.249c-0.222,0-0.441,0.003-0.661,0.009l-0.003,0.125c-0.001,0-0.002,0-0.004,0v-0.124
							c-0.136,0-0.246-0.107-0.25-0.243c-0.004-0.138,0.105-0.253,0.243-0.257c5.462,0.017,10.871,1.812,15.238,5.052
							C284.153,164.873,278.984,163.249,273.829,163.249z M293.608,190.69c-1.088,0.881-3.136,1.379-4.175,1.534
							c-1.559,0.207-3.317,0.317-5.081,0.317c-9.984,0-20.81-3.242-21.254-12.339c0.075-2.671,2.605-3.881,4.748-4.1
							c0.527-0.082,1.04-0.122,1.539-0.122c4.258,0,7.332,2.887,10.587,5.943c2.06,1.935,4.19,3.935,6.694,5.223
							c2.192,1.127,4.287,1.713,6.228,1.74c0.565,0.008,0.9,0.4,1.016,0.734C294.05,190.023,293.937,190.424,293.608,190.69z
							 M314.998,231.995c-0.025,0.117-0.125,0.163-0.167,0.177l-0.187,0.064l-0.101-0.16c-0.035-0.056-0.048-0.121-0.034-0.184
							c0.721-3.214,0.792-6.626,0.206-9.871c-0.569-3.203-1.848-6.374-3.699-9.171c-1.881-2.808-4.308-5.23-7.022-7.005
							c-0.532-0.358-1.101-0.694-1.651-1.019c-0.865-0.511-1.759-1.039-2.568-1.685c-1.075-0.857-2.391-2.276-2.552-4.174
							c0.154,1.47,1.071,2.931,2.599,4.115c0.794,0.622,1.692,1.137,2.559,1.636c0.557,0.32,1.134,0.652,1.685,1.012
							c2.757,1.757,5.233,4.168,7.162,6.976c1.907,2.806,3.241,6.003,3.857,9.244C315.722,225.243,315.691,228.716,314.998,231.995z
							 M326.479,229.163c-0.04,0.053-0.099,0.087-0.166,0.096l-0.034,0.002c-0.124,0-0.231-0.093-0.247-0.217
							c-0.072-0.752-0.134-1.482-0.195-2.212c-0.117-1.387-0.238-2.82-0.415-4.211c-0.247-1.832-0.718-4.162-2.178-5.942
							c0.686,0.759,1.23,1.694,1.627,2.768c0.333,0.889,0.589,1.884,0.805,3.132c0.233,1.404,0.407,2.829,0.576,4.206
							c0.089,0.73,0.178,1.46,0.277,2.191C326.537,229.044,326.52,229.109,326.479,229.163z M335.493,226.262
							c-0.047,0.048-0.109,0.075-0.176,0.076l-0.002,0.125c-0.001,0-0.001,0-0.002,0v-0.125c-0.136,0-0.248-0.111-0.25-0.247
							c0.061-1.664,0.1-3.277-0.08-4.851c-0.206-1.813-0.712-3.346-1.505-4.557c0.873,1.172,1.461,2.695,1.76,4.52
							c0.262,1.585,0.302,3.148,0.325,4.881C335.565,226.151,335.54,226.214,335.493,226.262z"/>
					</g>
				</g>
				<path style="fill:#13A7F1;" d="M180.564,396l-0.06,1.24l-0.74,16.13v0.07l-0.69,14.93l-0.17,1.85l-0.06,0.58
					c-0.02,0.18-0.04,0.41-0.05,0.59l-0.06,1.18l-0.24,4.73l-0.47,9.46l-0.96,18.91l-1.89,37.37l-0.01,0.23h-0.24l-98.87,0.02h-0.29
					l0.05-0.29l3.9-23.5c2.43-15.24,4.07-24.06,5.05-29.33c1.05-5.65,1.33-7.17,0.7-7.59l-0.08-0.05l-0.03-0.09
					c-1.15-4.44-3.57-42.91,7.5-76.97c11.18-34.38,50.79-39.83,51.19-39.88c0.09-0.01,0.18-0.04,0.26-0.08c0,0,2.52,0.91,6.24,3.55
					c4.42,3.12,10.53,8.69,16.12,18.06c2.45,4.08,4.79,8.89,6.85,14.53c0.03,0.06,0.05,0.12,0.07,0.18
					c1.54,4.24,2.92,8.94,4.07,14.17c0.06,0.27,0.12,0.55,0.18,0.83C179.064,382.58,180.004,388.95,180.564,396z"/>
				<path style="fill:#F7E5B4;" d="M357.654,486.12c0.07,2.71,0.24,5.53,0.5,8.43c-0.44-2.59-0.74-5.5-0.52-8.11
					C357.644,486.33,357.654,486.23,357.654,486.12z"/>
				<path style="fill:#13A7F1;" d="M423.944,503.48h-0.37l-24.92-0.25l-37.77,0.01h-0.21l-0.03-0.22
					c-2.8-19.82-1.74-35.85,3.15-47.64c0.03-0.08,0.04-0.15,0.05-0.23l0.1-1.27l0.05-0.65l0.06-0.76l0.07-0.87l0.04-0.47l0.12-1.54
					l0.09-1.13l2.07-25.8l0.02-0.29c0,0,0.01-0.02,0.02-0.07c0.02-0.05,0.04-0.13,0.08-0.23c1.07-3.51,10.72-37.04-0.68-71.55
					c0,0-2.92-12.49-12.85-23.07c13.77,4.01,27.6,10.5,33.48,20.89c7.32,12.92,14.16,48.72,20.77,83.33
					c5.65,29.59,10.99,57.54,16.52,71.47L423.944,503.48z"/>
				<path style="fill:#B47742;" d="M321.915,141.107h-31.677c0,0,4.396-14.083,15.92-15.29c0,0,14.488,3.073,15.805,9.549
					C321.963,135.366,324.172,139.275,321.915,141.107z"/>
				<path style="fill:#B47742;" d="M241.425,142.424h31.677c0,0-2.175-13.131-16.736-14.961c0,0-13.672,2.744-14.989,9.22
					C241.377,136.683,239.168,140.592,241.425,142.424z"/>
				<path style="fill:#FFFFFF;" d="M308.408,153.476c6.698,0,12.128-5.111,12.128-11.415H296.28
					C296.28,148.365,301.71,153.476,308.408,153.476z"/>
				<path style="fill:#FFFFFF;" d="M257.372,153.476c6.698,0,12.128-5.111,12.128-11.415h-24.256
					C245.244,148.365,250.674,153.476,257.372,153.476z"/>
			</g>
			<g>
				<g>
					<g>
						<path style="fill:#0B1011;" d="M174.527,301.887c0,0,9.314,1.693,9.06,1.778c-0.254,0.085-4.403,5.419-4.403,5.419
							L174.527,301.887z"/>
						<path style="fill:#0B1011;" d="M218.244,443.676l-40.829,24.695l2.415-41.049
							C179.829,427.322,191.573,439.724,218.244,443.676z"/>
						<path style="fill:#0B1011;" d="M363.927,447.481l1.61-25.463c0,0-12.395,10.883-20.04,11.968
							C345.496,433.985,363.927,438.846,363.927,447.481z"/>
						<path style="fill:none;stroke:#0B1011;stroke-width:2;stroke-linecap:round;stroke-linejoin:round;stroke-miterlimit:10;" d="
							M398.684,503.98l-323.781,0.062L79,479.383c4.976-31.285,6.732-35.968,5.854-36.261c-0.878-0.293-4.683-40.976,7.317-77.885
							c11.453-35.228,51.805-40.39,51.805-40.39l24.293-12.878c-2.049-2.927,6.146-9.073,6.146-9.073s37.61,48.439,91.902,49.317
							c0,0,36.439,4.829,42.732-29.561l-4.098-9.659l11.415,2.78l1.171,4.683c0,0,55.902,3.22,69.658,27.512
							c13.756,24.293,25.61,127.593,37.902,156.276L398.684,503.98z"/>
						<path style="fill:none;stroke:#0B1011;stroke-width:2;stroke-linecap:round;stroke-linejoin:round;stroke-miterlimit:10;" d="
							M360.018,503.838c-1.976-13.61-3.262-33.382,3.104-48.748c0,0,2.195-28.098,2.634-32.927c0,0,13.723-35.368-0.546-71.368"/>
						<g>
							<path style="fill:#0B1011;" d="M317.78,320.489c0.415,4.091,0.1,8.147-0.713,12.128c-0.826,3.972-2.243,7.833-4.26,11.369
								c-2.023,3.531-4.645,6.724-7.726,9.385c-3.072,2.674-6.569,4.829-10.258,6.513c-7.407,3.369-15.48,4.894-23.506,5.496
								c-8.05,0.604-16.188,0.078-24.105-1.516c-3.962-0.785-7.863-1.86-11.69-3.146c-3.837-1.283-7.548-2.86-11.223-4.48
								c-7.351-3.267-14.502-6.998-21.353-11.235c-6.842-4.246-13.388-9.006-19.406-14.392
								c-6.008-5.389-11.495-11.405-16.096-18.078c-0.314-0.455-0.199-1.077,0.256-1.391c0.455-0.313,1.077-0.199,1.391,0.256
								l0.004,0.006c8.957,13.118,21.316,23.664,34.781,32.107c6.755,4.224,13.821,7.957,21.093,11.233
								c3.644,1.629,7.307,3.206,11.064,4.482c3.758,1.284,7.59,2.362,11.483,3.153c7.782,1.608,15.773,2.165,23.706,1.611
								c7.916-0.552,15.848-2.017,23.078-5.264c3.602-1.622,7.004-3.698,9.99-6.271c2.995-2.561,5.544-5.632,7.521-9.042
								c1.97-3.415,3.367-7.156,4.192-11.021c0.814-3.853,1.135-7.88,0.76-11.764l-0.004-0.037c-0.027-0.283,0.18-0.534,0.463-0.562
								C317.502,320.002,317.753,320.206,317.78,320.489z"/>
						</g>
						<g>
							<path style="fill:#0B1011;" d="M308.738,325.996c-1.978,1.63-4.1,3.053-6.371,4.253c-2.272,1.173-4.728,2.129-7.387,2.305
								c-0.276,0.018-0.514-0.19-0.532-0.466c-0.018-0.276,0.19-0.514,0.466-0.532c0.005,0,0.01-0.001,0.014-0.001l0.017-0.001
								c2.428-0.08,4.833-0.907,7.081-1.983c2.246-1.095,4.399-2.442,6.381-3.971l0.009-0.007c0.112-0.087,0.274-0.066,0.361,0.046
								C308.863,325.75,308.844,325.908,308.738,325.996z"/>
						</g>
						<g>
							<path style="fill:#0B1011;" d="M196.211,323.797c0.189,0.017,0.404,0.051,0.586,0.099l0.431,0.124l0.86,0.249l1.713,0.504
								l3.429,0.996c2.287,0.658,4.58,1.298,6.878,1.915c4.596,1.237,9.212,2.393,13.85,3.451c4.642,1.038,9.305,1.979,13.991,2.772
								c4.691,0.758,9.404,1.369,14.134,1.708l0.007,0c0.275,0.02,0.483,0.259,0.463,0.534c-0.02,0.275-0.259,0.483-0.535,0.463
								l-0.004,0c-4.771-0.382-9.506-1.038-14.212-1.839c-4.7-0.836-9.369-1.82-14.014-2.9c-4.64-1.1-9.256-2.298-13.848-3.576
								c-2.296-0.638-4.587-1.298-6.871-1.977l-3.423-1.026l-1.709-0.519l-0.853-0.255l-0.426-0.127
								c-0.107-0.024-0.183-0.057-0.283-0.109l-0.266-0.14c-0.091-0.048-0.125-0.16-0.078-0.25
								C196.067,323.828,196.139,323.791,196.211,323.797z"/>
						</g>
						<g>
							<path style="fill:#0B1011;" d="M274.185,339.009c1.284,1.255,2.674,2.427,4.129,3.479c1.456,1.046,3.013,1.985,4.676,2.541
								c0.828,0.268,1.694,0.425,2.509,0.316c0.815-0.101,1.54-0.504,2.058-1.134c0.512-0.631,0.887-1.412,1.094-2.257
								c0.138-0.408,0.183-0.854,0.28-1.277l0.157-1.315l0.005-0.039c0.033-0.274,0.281-0.47,0.555-0.437
								c0.274,0.033,0.47,0.281,0.437,0.556c0,0.003-0.001,0.008-0.001,0.011l-0.197,1.388c-0.114,0.459-0.172,0.924-0.334,1.377
								c-0.249,0.911-0.684,1.812-1.333,2.571c-0.649,0.764-1.63,1.277-2.625,1.37c-0.997,0.107-1.959-0.103-2.846-0.41
								c-1.777-0.64-3.346-1.646-4.812-2.747c-1.465-1.111-2.836-2.319-4.122-3.633c-0.099-0.102-0.098-0.264,0.004-0.364
								c0.1-0.098,0.26-0.098,0.36,0L274.185,339.009z"/>
						</g>
						<path style="fill:none;stroke:#0B1011;stroke-width:2;stroke-linecap:round;stroke-linejoin:round;stroke-miterlimit:10;" d="
							M79,479.383"/>
						<path style="fill:none;stroke:#0B1011;stroke-width:2;stroke-linecap:round;stroke-linejoin:round;stroke-miterlimit:10;" d="
							M169.715,469.469"/>
						<g>
							<path style="fill:#0B1011;" d="M174.925,503.484l1.914-37.823l0.957-18.913l0.479-9.457l0.239-4.729l0.06-1.182
								c0.004-0.179,0.027-0.422,0.05-0.608l0.061-0.582l0.213-2.342c0.975-12.522,0.9-25.16-0.487-37.635
								c-0.698-6.235-1.776-12.428-3.352-18.482c-0.783-3.029-1.741-6.005-2.805-8.938c-1.101-2.919-2.37-5.767-3.802-8.525
								l-0.032-0.068l-0.007-0.016c-0.979-2.26-2.169-4.518-3.432-6.685c-1.275-2.17-2.652-4.281-4.149-6.299
								c-2.988-4.034-6.439-7.741-10.429-10.721l-0.004-0.003c-0.442-0.331-0.533-0.957-0.203-1.4c0.33-0.442,0.957-0.533,1.4-0.202
								l0.003,0.002c4.182,3.146,7.739,7.004,10.804,11.167c1.535,2.084,2.942,4.256,4.243,6.487
								c1.296,2.244,2.486,4.509,3.527,6.933l-0.039-0.083c1.466,2.847,2.756,5.776,3.872,8.766
								c1.077,3.002,2.042,6.042,2.827,9.126c1.58,6.165,2.647,12.443,3.33,18.749c1.354,12.619,1.382,25.336,0.352,37.967
								l-0.225,2.371l-0.064,0.594c-0.026,0.205-0.04,0.355-0.05,0.57l-0.069,1.18l-0.277,4.722l-0.554,9.445l-1.107,18.89
								l-2.216,37.784c-0.017,0.284-0.26,0.5-0.544,0.484C175.127,504.008,174.911,503.766,174.925,503.484z"/>
						</g>
						<g>
							<path style="fill:#0B1011;" d="M184.517,431.147c13.009,8.297,28.344,12.881,43.749,13.09
								c15.405,0.209,30.836-3.959,44.025-11.877c0.237-0.142,0.544-0.065,0.686,0.171c0.142,0.237,0.065,0.544-0.171,0.686
								l-0.002,0.001c-13.394,7.945-29.002,12.067-44.549,11.776c-15.547-0.292-30.967-4.996-44.015-13.414
								c-0.12-0.077-0.154-0.236-0.077-0.356C184.239,431.106,184.398,431.071,184.517,431.147z"/>
						</g>
						<g>
							<path style="fill:#0B1011;" d="M315.964,428.421c4.154,1.772,8.327,3.518,12.658,4.729c4.316,1.21,8.836,1.856,13.269,1.29
								c4.435-0.547,8.642-2.301,12.491-4.574c3.865-2.279,7.426-5.051,10.954-7.865c0.216-0.172,0.53-0.137,0.703,0.079
								c0.172,0.216,0.137,0.53-0.079,0.703l-0.004,0.003c-3.56,2.788-7.179,5.557-11.132,7.841
								c-3.935,2.278-8.269,4.045-12.842,4.567c-4.571,0.541-9.179-0.168-13.534-1.43c-4.372-1.265-8.548-3.059-12.689-4.868
								c-0.13-0.057-0.19-0.209-0.133-0.339C315.684,428.425,315.834,428.366,315.964,428.421z"/>
						</g>
						<g>
							<path style="fill:#0B1011;" d="M177.116,484.168l6.592,6.136c0.148,0.138,0.223,0.326,0.221,0.514l-0.001,0.035
								l-0.173,12.985c-0.007,0.552-0.461,0.994-1.013,0.987c-0.552-0.007-0.994-0.461-0.987-1.013c0-0.012,0.001-0.029,0.001-0.041
								l0.705-12.967l0.22,0.549l-6.286-6.449c-0.198-0.204-0.194-0.53,0.009-0.728
								C176.603,483.984,176.916,483.983,177.116,484.168z"/>
						</g>
					</g>
					<g>
						<path style="fill:#0B1011;" d="M185.002,146.074c0.86-3.969,3.118-7.511,5.78-10.578c0.316-0.364,0.656-0.764,0.676-1.245
							c0.012-0.288-0.093-0.565-0.2-0.833c-2.973-7.49-7.71-14.273-13.718-19.642c6.548,0.053,13.016,3.073,17.26,8.061
							c1.356,1.593,2.5,3.38,4.046,4.789c1.638,1.493,3.709,2.546,5.002,4.346c1.353,1.883,1.65,4.458,0.831,6.627
							c-0.819,2.169-2.709,3.887-4.924,4.571c-1.244,0.384-2.581,0.463-3.769,0.993c-2.093,0.934-2.858,4.299-3.202,6.566
							s0.051,3.647,0.675,5.853c0.141,0.499-0.094,1.023-0.45,1.401c-0.16,0.169-0.48,0.13-0.701,0.204
							c-1.283,0.431-3.185,1.084-4.51,0.449c-0.967-0.463-1.561-1.814-1.982-2.736C184.568,152.163,184.369,148.993,185.002,146.074
							z"/>
						<path style="fill:#0B1011;" d="M206.045,170.551c0,0-2.738,25.884-16.302,23.022l-0.404-11.799
							C189.339,181.775,201.192,184.489,206.045,170.551z"/>
						<path style="fill:#0B1011;" d="M292.355,242.014c0.359,0,14.73,9.557,29.101-1.796L292.355,242.014z"/>
						<path style="fill:#0B1011;" d="M273.607,248.9c0.265,0.177,20.075,13.442,32.633,13.531c0,0,9.021-2.034,12.47-11.231
							c0,0-6.016,5.349-13,5.041c-7.572-0.334-17.599-3.538-17.599-3.538L273.607,248.9z"/>
						<path style="fill:#0B1011;" d="M304.805,313.285c0,0-8.049,14.488-28.829,2.634c-20.781-11.854-44.927-20.927-55.756-39.951
							c-10.829-19.024-13.902-36.732-13.902-36.732s7.448,11.689,21.204,17.836c0,0,6.162,15.823,18.455,23.432
							c0,0,18.146,8.927,36.146,10.829l12.439,1.463l9.571-1.876C304.132,290.922,302.463,307.871,304.805,313.285z"/>
						<path style="fill:#0B1011;" d="M263.349,195.83c0,0-9.489-3.882-14.018-1.941l6.398-4.313L263.349,195.83z"/>
						<path style="fill:#0B1011;" d="M324.956,192.307c0,0,4.96-2.372,9.705-0.359l-3.235-4.888L324.956,192.307z"/>
						<path style="fill:none;stroke:#0B1011;stroke-width:2;stroke-linecap:round;stroke-linejoin:round;stroke-miterlimit:10;" d="
							M337.874,234.04c0,0-0.22,7.9-5.48,10.54l-2.86,1.1c-1.44,11.39-2.56,22.47-9.17,32.3c-0.66,0.97-1.35,1.92-2.08,2.84
							c-1.77,2.24-3.76,4.33-6.04,6.07c-9.4,7.17-20.66,5.71-31.52,3.9c-10.73-1.79-21.83-4.29-31.55-9.33
							c-3.02-1.57-5.97-3.45-8.32-5.93c-11.63-12.29-13.61-17.78-13.61-17.78s-15.15-6.81-27.44-29.2c0,0-8.34,0-10.75,5.27
							c0,0-2.86-8.34,0.87-14.05c0,0-7.43,0.44-10.08,3.93c0.43-0.76,12.88-22.92,9.64-41.68c0,0-22.61-1.98-33.36-35.12
							c0,0-18.66-48.08,29.19-44.13c0,0-0.66-10.75-1.75-14.26l53.34-26.13c0,0,41.71-12.95,73.97-2.41c0,0-15.8,6.58-18.22,12.29
							c0,0,13.4,2.2,20.64,6.81c0,0-9.66,2.41-11.64,5.26c0,0,8.61,5.53,15.2,11.06c3.5,2.95,6.44,5.91,7.2,8.04
							c0,0,0.41,0.67,0.99,1.88c2.01,4.2,5.98,14.86,1.2,25.78c-4.21,9.63-3.68,21.52-2.51,28.69c0.54,3.3,1.22,5.59,1.63,6.21
							c0,0,1.59,0.5,3.4,1.81c0.92,0.65,1.9,1.52,2.76,2.64c2.42,3.15,3.85,8.25,0.21,16.19
							C331.734,186.63,352.584,218.9,337.874,234.04z"/>
						<path style="fill:none;stroke:#0B1011;stroke-linecap:round;stroke-linejoin:round;stroke-miterlimit:10;" d="
							M242.024,200.456l-9.658-11.415l1.756-14.634c0,0-43.133-25.702-17.561-62.927c23.122-33.659,64.683-6.146,64.683-6.146
							s23.707-24.878,43.024-0.293"/>
						<path style="fill:none;stroke:#0B1011;stroke-linecap:round;stroke-linejoin:round;stroke-miterlimit:10;" d="
							M256.366,189.334c0,0-13.317,7.463-16.098,13.756c-2.781,6.293-4.244,14.342-4.244,14.342"/>
						<g>
							<path style="fill:#0B1011;" d="M275.453,200.964c-2.935-0.762-5.82-1.719-8.63-2.864c-2.774-1.154-5.652-2.391-8.039-4.461
								c-2.368-2.033-4.24-4.658-5.326-7.607c-1.092-2.934-1.4-6.214-0.645-9.315c0.74-3.079,2.502-5.971,5.107-7.887
								c2.587-1.931,5.787-2.832,8.923-2.948c3.163-0.137,6.295,0.586,9.169,1.722c2.888,1.143,5.554,2.699,8.096,4.365
								c0.462,0.303,0.591,0.923,0.288,1.385c-0.303,0.462-0.923,0.591-1.385,0.288c-0.001-0.001-0.009-0.006-0.011-0.007
								c-2.461-1.653-5.002-3.166-7.697-4.266c-2.691-1.095-5.541-1.778-8.401-1.684c-2.846,0.072-5.707,0.862-7.971,2.518
								c-2.273,1.629-3.867,4.157-4.558,6.901c-0.701,2.746-0.469,5.715,0.503,8.414c0.961,2.707,2.662,5.153,4.831,7.056
								c2.156,1.921,4.878,3.143,7.618,4.316c2.744,1.153,5.565,2.123,8.439,2.903c0.323,0.087,0.514,0.42,0.427,0.743
								C276.103,200.857,275.774,201.047,275.453,200.964z"/>
						</g>
						<g>
							<path style="fill:#0B1011;" d="M303.963,173.077c1.872-2.348,4.369-4.027,6.968-5.24c2.602-1.206,5.365-2.099,8.255-2.428
								c2.874-0.322,5.901-0.053,8.603,1.214c2.665,1.244,4.979,3.367,6.178,6.131c0.593,1.374,0.834,2.92,0.812,4.347
								c-0.021,1.425-0.029,2.799-0.2,4.252c-0.16,1.439-0.614,2.913-1.378,4.176c-0.741,1.282-1.754,2.354-2.829,3.301
								c-2.184,1.877-4.667,3.226-7.074,4.613c-2.426,1.377-4.947,2.695-7.678,3.498c-0.23,0.068-0.471-0.064-0.538-0.294
								c-0.067-0.227,0.063-0.466,0.288-0.537c2.608-0.815,5.04-2.133,7.423-3.541c2.384-1.425,4.801-2.804,6.819-4.603
								c2.025-1.782,3.491-4.099,3.684-6.764c0.135-1.315,0.125-2.731,0.121-4.087c-0.008-1.355-0.238-2.607-0.763-3.789
								c-1.064-2.352-3.138-4.215-5.519-5.272c-2.377-1.07-5.115-1.285-7.743-0.943c-2.643,0.344-5.234,1.225-7.656,2.399
								c-2.41,1.173-4.618,2.744-6.194,4.794c-0.335,0.439-0.962,0.524-1.402,0.189c-0.439-0.335-0.524-0.962-0.189-1.402
								C303.952,173.091,303.96,173.08,303.963,173.077z"/>
						</g>
						<path style="fill:none;stroke:#0B1011;stroke-linecap:round;stroke-linejoin:round;stroke-miterlimit:10;" d="
							M153.319,120.604c6.983-5.758,16.525-7.978,25.504-6.841c5.094,0.646,10.182,2.386,14.023,5.794
							c3.362,2.983,5.639,7.11,9.285,9.738c0.326,0.235,0.682,0.464,1.083,0.495c0.644,0.049,1.204-0.418,1.647-0.888
							c2.24-2.374,3.531-5.619,3.536-8.884c0.005-3.264-1.277-6.513-3.51-8.894c-1.415-1.509-3.171-2.659-4.998-3.629
							c-4.685-2.489-9.888-3.862-15.119-4.745"/>
						<path style="fill:none;stroke:#0B1011;stroke-linecap:round;stroke-linejoin:round;stroke-miterlimit:10;" d="
							M188.612,181.537c2.784,0.135,5.656,0.257,8.272-0.706c3.697-1.36,6.33-4.702,8.069-8.236
							c1.914-3.89,2.982-8.193,3.109-12.527"/>
						<g>
							<path style="fill:#0B1011;" d="M181.245,151.104c0.43,1.974,1.617,3.769,3.245,4.954c1.628,1.186,3.708,1.707,5.703,1.497
								c0.499-0.054,0.992-0.153,1.471-0.296c0.479-0.133,0.926-0.333,1.242-0.63c0.318-0.303,0.395-0.651,0.232-1.073
								c-0.163-0.408-0.453-0.927-0.614-1.444c-0.687-2.099-0.431-4.358,0.273-6.368c0.355-1.012,0.828-1.981,1.415-2.883
								c0.3-0.448,0.604-0.885,0.987-1.296c0.373-0.41,0.87-0.782,1.406-0.993c1.08-0.413,2.089-0.497,3.05-0.824
								c0.961-0.298,1.878-0.711,2.63-1.324c1.517-1.219,2.445-3.164,2.429-5.106c0-1.949-0.846-3.907-2.311-5.167
								c-0.21-0.18-0.234-0.496-0.054-0.705c0.18-0.21,0.495-0.234,0.705-0.054c0.001,0.001,0.004,0.003,0.005,0.004
								c1.69,1.487,2.613,3.713,2.595,5.925c-0.01,2.233-1.076,4.41-2.821,5.789c-0.875,0.699-1.903,1.141-2.929,1.448
								c-1.02,0.331-2.117,0.436-2.989,0.77c-0.862,0.315-1.476,1.131-2.046,1.966c-0.557,0.839-1.014,1.751-1.358,2.702
								c-0.686,1.89-0.929,4.001-0.326,5.896c0.145,0.482,0.374,0.876,0.595,1.435c0.099,0.275,0.159,0.619,0.081,0.954
								c-0.077,0.335-0.271,0.619-0.495,0.828c-0.453,0.415-0.998,0.629-1.518,0.772c-0.52,0.15-1.054,0.252-1.591,0.305
								c-2.15,0.205-4.37-0.375-6.107-1.666c-1.731-1.287-2.969-3.203-3.408-5.312c-0.029-0.139,0.06-0.275,0.2-0.305
								C181.08,150.877,181.215,150.966,181.245,151.104z"/>
						</g>
						<g>
							<path style="fill:#0B1011;" d="M236.441,217.532c-0.382,2.2,0.052,4.624,0.972,6.727c0.929,2.131,2.382,4.015,4.091,5.612
								c3.453,3.197,7.812,5.297,12.27,6.854c4.485,1.547,9.157,2.546,13.862,3.248c4.709,0.702,9.463,1.106,14.226,1.319
								c4.763,0.222,9.536,0.236,14.306,0.132c2.387-0.047,4.766-0.138,7.159-0.254c2.406-0.109,4.761-0.151,7.144-0.344
								c4.748-0.349,9.487-0.927,14.13-1.923c2.32-0.498,4.61-1.127,6.827-1.932c2.199-0.829,4.349-1.85,6.13-3.311l0.009-0.008
								c0.213-0.175,0.528-0.144,0.704,0.069c0.175,0.214,0.144,0.529-0.069,0.704l-0.001,0.001
								c-1.93,1.577-4.166,2.623-6.429,3.475c-2.278,0.825-4.61,1.46-6.963,1.962c-4.709,1.004-9.485,1.578-14.269,1.925
								c-2.384,0.191-4.81,0.232-7.179,0.337c-2.381,0.113-4.78,0.202-7.173,0.246c-4.788,0.098-9.581,0.078-14.369-0.151
								c-4.787-0.22-9.571-0.632-14.319-1.346c-4.744-0.714-9.463-1.727-14.019-3.305c-4.528-1.59-8.986-3.73-12.575-7.059
								c-1.776-1.663-3.304-3.643-4.287-5.904c-0.967-2.264-1.451-4.747-1.011-7.273c0.04-0.232,0.262-0.388,0.494-0.348
								c0.233,0.04,0.388,0.262,0.348,0.495L236.441,217.532z"/>
						</g>
						<g>
							<path style="fill:#0B1011;" d="M236.526,221.567c0.147,2.072,1.085,4.205,2.24,6.051c1.159,1.882,2.625,3.573,4.224,5.116
								c3.212,3.089,6.983,5.574,10.919,7.696c7.903,4.245,16.504,7.079,25.187,9.355l3.27,0.821l3.297,0.747
								c1.104,0.231,2.195,0.515,3.281,0.821l3.265,0.886l6.53,1.771c1.101,0.277,2.164,0.646,3.232,0.795
								c1.084,0.166,2.188,0.235,3.287,0.221c2.198-0.033,4.392-0.444,6.413-1.276c1.018-0.428,1.938-0.949,2.912-1.555l2.903-1.744
								c3.89-2.296,7.823-4.505,11.84-6.591c0.245-0.127,0.547-0.032,0.674,0.213c0.127,0.245,0.032,0.547-0.213,0.674l-0.001,0
								l-0.006,0.003c-3.986,2.063-7.919,4.265-11.794,6.546l-2.895,1.733c-0.939,0.584-1.984,1.178-3.048,1.619
								c-2.15,0.882-4.466,1.309-6.77,1.341c-1.154,0.014-2.306-0.059-3.45-0.236c-1.167-0.169-2.246-0.547-3.328-0.819
								l-6.517-1.778l-3.259-0.889c-1.083-0.307-2.173-0.592-3.275-0.824l-3.295-0.752l-3.286-0.83
								c-8.727-2.301-17.381-5.161-25.378-9.469c-3.983-2.155-7.813-4.681-11.102-7.852c-1.638-1.585-3.147-3.328-4.352-5.289
								c-1.198-1.963-2.189-4.074-2.36-6.52c-0.016-0.235,0.161-0.439,0.396-0.456c0.235-0.016,0.439,0.161,0.456,0.396
								L236.526,221.567z"/>
						</g>
						<g>
							<path style="fill:#0B1011;" d="M304.634,264.192c-1.306,6.119-0.755,12.598,1.534,18.368c0.102,0.257-0.024,0.547-0.28,0.649
								s-0.547-0.024-0.649-0.28c-0.001-0.003-0.003-0.009-0.005-0.012c-2.209-6.016-2.588-12.655-1.102-18.839
								c0.033-0.138,0.172-0.223,0.31-0.19C304.578,263.921,304.663,264.056,304.634,264.192z"/>
						</g>
						<g>
							<path style="fill:#0B1011;" d="M297.514,198.945c0.149,1.585,1.223,2.958,2.488,3.939c1.285,1.005,2.807,1.709,4.228,2.636
								c2.857,1.82,5.312,4.251,7.232,7.044c1.905,2.804,3.261,5.996,3.897,9.339c0.644,3.339,0.615,6.808-0.09,10.144
								c-0.057,0.27-0.323,0.443-0.593,0.386c-0.27-0.057-0.443-0.322-0.386-0.593c0-0.001,0.001-0.005,0.001-0.006
								c0.716-3.195,0.786-6.539,0.203-9.769c-0.574-3.233-1.845-6.333-3.661-9.077c-1.83-2.733-4.189-5.128-6.95-6.934
								c-1.363-0.917-2.894-1.644-4.238-2.718c-1.324-1.056-2.492-2.547-2.645-4.348c-0.012-0.142,0.093-0.266,0.235-0.278
								C297.376,198.698,297.501,198.805,297.514,198.945z"/>
						</g>
						<g>
							<path style="fill:#0B1011;" d="M323.467,216.504c0.734,0.837,1.282,1.824,1.664,2.857c0.387,1.033,0.632,2.106,0.817,3.176
								c0.356,2.144,0.567,4.27,0.854,6.407c0.037,0.274-0.155,0.525-0.429,0.562c-0.274,0.037-0.526-0.156-0.562-0.429
								c-0.001-0.006-0.001-0.011-0.002-0.017l-0.002-0.019c-0.204-2.128-0.338-4.284-0.607-6.388
								c-0.281-2.083-0.795-4.196-2.124-5.815c-0.091-0.109-0.076-0.272,0.033-0.363
								C323.216,216.387,323.375,216.401,323.467,216.504z"/>
						</g>
						<g>
							<path style="fill:#0B1011;" d="M333.72,216.528c0.992,1.361,1.524,3.003,1.791,4.635c0.271,1.64,0.307,3.293,0.328,4.918
								c0.004,0.276-0.217,0.503-0.493,0.507c-0.276,0.004-0.503-0.217-0.507-0.494c0-0.008,0-0.017,0-0.025
								c0.059-1.617,0.102-3.223-0.078-4.801c-0.178-1.571-0.601-3.128-1.465-4.449c-0.078-0.119-0.045-0.278,0.074-0.356
								C333.485,216.388,333.639,216.418,333.72,216.528z"/>
						</g>
						<g>
							<path style="fill:#0B1011;" d="M186.529,168.385c1.486,1.308,3.382,2.12,5.343,2.355c1.956,0.222,3.993-0.047,5.747-0.924
								c1.762-0.852,3.18-2.299,4.246-3.965c1.085-1.663,1.88-3.52,2.672-5.387c0.107-0.255,0.4-0.374,0.655-0.267
								c0.254,0.107,0.374,0.4,0.267,0.655c-0.001,0.002-0.004,0.008-0.005,0.011c-0.833,1.857-1.682,3.748-2.859,5.476
								c-1.152,1.728-2.717,3.275-4.652,4.162c-1.917,0.908-4.089,1.147-6.156,0.87c-2.072-0.291-4.063-1.189-5.607-2.606
								c-0.105-0.096-0.112-0.259-0.016-0.364c0.095-0.103,0.255-0.112,0.36-0.019L186.529,168.385z"/>
						</g>
						<g>
							<path style="fill:#0B1011;" d="M162.622,150.588c4.196,12.757,14.643,23.237,27.302,27.476
								c0.262,0.087,0.403,0.371,0.316,0.633c-0.088,0.262-0.371,0.403-0.633,0.316c-0.001,0-0.005-0.002-0.006-0.002
								c-12.917-4.505-23.372-15.297-27.469-28.265c-0.043-0.136,0.032-0.28,0.168-0.323
								C162.435,150.38,162.578,150.454,162.622,150.588z"/>
						</g>
						<g>
							<path style="fill:#0B1011;" d="M282.025,118.065c0.029,1.633,0.264,3.261,0.694,4.834c0.218,0.786,0.48,1.558,0.793,2.312
								c0.311,0.756,0.67,1.527,0.863,2.381c0.19,0.856,0.196,1.711,0.195,2.543c-0.006,0.837-0.047,1.671-0.104,2.501
								c-0.114,1.66-0.293,3.305-0.378,4.944c-0.345,6.55,0.91,13.171,3.623,19.122c0.115,0.251,0.004,0.548-0.247,0.662
								c-0.251,0.115-0.548,0.004-0.662-0.248c0-0.001-0.002-0.005-0.003-0.006c-2.706-6.132-3.899-12.907-3.467-19.575
								c0.107-1.666,0.307-3.311,0.439-4.952c0.106-1.626,0.265-3.313-0.018-4.857c-0.162-0.768-0.493-1.514-0.803-2.289
								c-0.312-0.779-0.573-1.58-0.787-2.391c-0.423-1.625-0.643-3.301-0.653-4.978c-0.001-0.142,0.114-0.258,0.256-0.259
								C281.907,117.811,282.022,117.924,282.025,118.065z"/>
						</g>
						<g>
							<path style="fill:#0B1011;" d="M298.986,167.977c0.802-1.092,1.818-2.019,2.945-2.756c1.122-0.749,2.343-1.324,3.58-1.821
								c1.242-0.493,2.502-0.903,3.77-1.294c1.266-0.382,2.656-0.732,4.107-0.485c0.272,0.046,0.455,0.305,0.409,0.577
								c-0.046,0.272-0.305,0.456-0.577,0.409c-0.005-0.001-0.013-0.002-0.019-0.003c-1.166-0.242-2.432,0.008-3.679,0.348
								c-1.261,0.347-2.521,0.714-3.742,1.157c-1.219,0.447-2.413,0.967-3.506,1.649c-1.099,0.672-2.084,1.519-2.876,2.529
								c-0.086,0.113-0.247,0.136-0.361,0.049C298.926,168.251,298.906,168.09,298.986,167.977z"/>
						</g>
						<g>
							<path style="fill:#0B1011;" d="M288.267,168.027c-4.395-3.063-9.764-4.662-15.066-4.519c-0.276,0.007-0.506-0.21-0.513-0.486
								c-0.007-0.276,0.21-0.506,0.486-0.513c0.004,0,0.011,0,0.015,0c5.523,0.018,10.986,1.842,15.378,5.101
								c0.114,0.085,0.138,0.246,0.053,0.36C288.538,168.081,288.381,168.106,288.267,168.027z"/>
						</g>
						<path style="fill:#0B1011;" d="M286.806,186.923c-6.813-3.504-10.809-12.338-18.959-11.07
							c-2.47,0.252-4.899,1.687-4.973,4.361c0.568,11.63,17.52,13.467,26.621,12.258c1.103-0.165,3.165-0.671,4.296-1.587
							c0.927-0.751,0.325-2.232-0.868-2.249C290.849,188.606,288.731,187.913,286.806,186.923z"/>
						<path style="fill:#0B1011;" d="M305.465,185.342c6.19-4.514,8.774-13.859,17.022-13.865c2.479-0.132,5.1,0.91,5.586,3.541
							c1.235,11.578-15.23,16.01-24.409,16.221c-1.116,0.007-3.23-0.174-4.489-0.905c-1.032-0.599-0.666-2.155,0.51-2.356
							C301.73,187.629,303.715,186.618,305.465,185.342z"/>
						<g>
							<path style="fill:#0B1011;" d="M242.854,63.156c7.281-1.907,14.984-1.891,22.352-0.473
								c7.389,1.422,14.455,4.222,21.057,7.775c0.243,0.131,0.334,0.434,0.203,0.677c-0.131,0.243-0.434,0.334-0.677,0.203
								l-0.005-0.003c-6.495-3.587-13.447-6.428-20.726-7.91c-7.258-1.478-14.863-1.576-22.077,0.229
								c-0.138,0.035-0.278-0.049-0.312-0.187C242.635,63.331,242.718,63.192,242.854,63.156z"/>
						</g>
						<g>
							<path style="fill:#0B1011;" d="M300.098,252.127c3.348,0.604,6.838,0.279,9.979-0.906c0.259-0.098,0.547,0.033,0.645,0.291
								c0.097,0.258-0.033,0.547-0.291,0.645c-0.007,0.003-0.016,0.006-0.023,0.008c-3.368,1.092-7.005,1.247-10.413,0.467
								c-0.139-0.032-0.225-0.17-0.193-0.309C299.831,252.189,299.963,252.103,300.098,252.127z"/>
						</g>
						<path style="fill:none;stroke:#0B1011;stroke-width:2;stroke-linecap:round;stroke-linejoin:round;stroke-miterlimit:10;" d="
							M180.178,308.995c0,0,24.237-43.343,25.773-71.002"/>
						<path style="fill:none;stroke:#0B1011;stroke-width:2;stroke-linecap:round;stroke-linejoin:round;stroke-miterlimit:10;" d="
							M304.079,291.668c0.439,1.537-3.374,18.489,4.967,30.782"/>
						<g>
							<path style="fill:#0B1011;" d="M190.484,90.306c10.03-0.795,20.186-0.115,30.043,2.018c0.27,0.058,0.441,0.324,0.383,0.594
								c-0.058,0.27-0.325,0.441-0.594,0.383c-0.002,0-0.006-0.001-0.008-0.002c-9.725-2.27-19.796-3.111-29.787-2.48
								c-0.142,0.009-0.264-0.099-0.273-0.241C190.239,90.438,190.344,90.317,190.484,90.306z"/>
						</g>
						<path style="fill:none;stroke:#0B1011;stroke-linecap:round;stroke-linejoin:round;stroke-miterlimit:10;" d="
							M236.244,217.902c3.242,0.728,5.41-1.062,8.127-2.974c2.717-1.913,5.135-4.295,8.125-5.743c4.956-2.4,10.9-1.906,16.083-0.048
							c5.183,1.858,9.809,4.961,14.529,7.796c4.57,2.744,9.273,5.259,13.986,7.749c6.321,3.339,12.703,6.653,19.512,8.83
							s14.126,3.184,21.142,1.811"/>
						<path style="fill:none;stroke:#0B1011;stroke-linecap:round;stroke-linejoin:round;stroke-miterlimit:10;" d="
							M239.684,229.529c1.48,1.503,4.089,1.084,5.806-0.141c1.717-1.225,2.897-3.054,4.449-4.483
							c2.772-2.552,6.774-3.702,10.478-3.011c3.128,0.583,5.882,2.352,8.619,3.974c9.398,5.571,19.641,9.822,30.37,11.88
							c10.729,2.058,21.958,1.879,32.45-1.167"/>
						<path style="fill:none;stroke:#0B1011;stroke-linecap:round;stroke-linejoin:round;stroke-miterlimit:10;" d="
							M249.959,224.934c-0.523,1.973-1.05,3.99-0.902,6.025c0.148,2.035,1.099,4.129,2.887,5.112
							c0.693,0.381,1.471,0.577,2.247,0.735c1.833,0.372,3.707,0.546,5.577,0.519c0.456-0.007,0.921-0.027,1.35-0.181
							c0.451-0.163,0.838-0.465,1.189-0.792c1.583-1.473,2.579-3.513,2.99-5.636c0.411-2.123,0.263-4.327-0.202-6.439"/>
						<path style="fill:none;stroke:#0B1011;stroke-linecap:round;stroke-linejoin:round;stroke-miterlimit:10;" d="
							M263.649,235.191c0.091,0.636,0.182,1.272,0.274,1.908c0.033,0.228,0.072,0.469,0.224,0.642
							c0.13,0.147,0.322,0.22,0.509,0.283c1.29,0.432,2.654,0.593,4.008,0.724c1.149,0.111,2.319,0.201,3.447-0.042
							c1.128-0.242,2.226-0.865,2.785-1.875c0.358-0.648,0.47-1.399,0.577-2.131c0.22-1.52,0.441-3.04,0.661-4.56"/>
						<path style="fill:none;stroke:#0B1011;stroke-linecap:round;stroke-linejoin:round;stroke-miterlimit:10;" d="
							M285.644,234.108c-0.11,1.416-0.252,2.83-0.424,4.24c-0.024,0.197-0.052,0.403-0.169,0.563
							c-0.126,0.174-0.335,0.266-0.537,0.343c-2.611,0.996-5.514,0.805-8.282,0.422c-0.787-0.109-1.651-0.277-2.135-0.907
							c-0.132-0.171-0.236-0.387-0.278-0.599"/>
						<path style="fill:none;stroke:#0B1011;stroke-linecap:round;stroke-linejoin:round;stroke-miterlimit:10;" d="M294.87,236.862
							c-0.003,0.861-0.007,1.722-0.01,2.583c-0.001,0.15-0.003,0.306-0.074,0.437c-0.123,0.226-0.404,0.304-0.654,0.36
							c-0.694,0.156-1.389,0.312-2.095,0.399c-1.357,0.166-2.73,0.073-4.093-0.031c-0.95-0.072-1.925-0.157-2.784-0.569
							c-0.147-0.07-0.294-0.154-0.39-0.286c-0.096-0.132-0.128-0.323-0.035-0.457"/>
						<path style="fill:none;stroke:#0B1011;stroke-linecap:round;stroke-linejoin:round;stroke-miterlimit:10;" d="M303.195,238.61
							c0,0.483,0,0.966,0,1.448c0,0.085-0.003,0.179-0.061,0.241c-0.049,0.052-0.124,0.068-0.194,0.081
							c-2.682,0.497-5.46,0.47-8.133-0.078"/>
						<path style="fill:none;stroke:#0B1011;stroke-width:2;stroke-linecap:round;stroke-linejoin:round;stroke-miterlimit:10;" d="
							M244.892,141.631c0.034,1.329,0.26,2.601,0.666,3.802c1.72,5.05,6.49,8.68,12.12,8.68c5.88,0,10.83-3.95,12.34-9.35
							c0.281-0.999,0.432-2.049,0.459-3.132H244.892z"/>
						<path style="fill:#0B1011;" d="M270.477,140.679c-0.027,1.083-0.177,2.133-0.459,3.132l6.18-3.09l-0.053-0.042H270.477z"/>
						<path style="fill:#0B1011;" d="M239.255,140.679l-2.137,1.582c0,0,5.53,1.44,8.44,2.22c-0.406-1.201-0.633-2.472-0.666-3.802
							H239.255z"/>
						<path style="fill:#0B1011;" d="M251.712,141.631c0.579,3.67,3.747,6.48,7.58,6.48c3.833,0,7.001-2.81,7.58-6.48H251.712z"/>
						<path style="fill:#FFFFFF;" d="M259.098,141.631c0.837,1.065,2.487,1.799,4.41,1.799s3.573-0.734,4.411-1.799H259.098z"/>
						<g>
							<path style="fill:#0B1011;" d="M248.609,155.254c1.445-0.401,2.895-0.625,4.363-0.792c1.466-0.161,2.94-0.235,4.415-0.247
								c1.474,0.012,2.95,0.055,4.419,0.203c1.471,0.126,2.931,0.345,4.387,0.592c0.272,0.046,0.456,0.304,0.409,0.577
								c-0.046,0.272-0.304,0.456-0.577,0.41c-0.004-0.001-0.007-0.001-0.011-0.002L266,155.992c-1.42-0.281-2.847-0.536-4.287-0.7
								c-1.438-0.186-2.886-0.267-4.335-0.32c-1.449-0.029-2.9,0.005-4.346,0.123c-1.439,0.122-2.895,0.31-4.279,0.653l-0.015,0.004
								c-0.138,0.034-0.277-0.05-0.312-0.188C248.395,155.428,248.476,155.291,248.609,155.254z"/>
						</g>
						<path style="fill:none;stroke:#0B1011;stroke-width:2;stroke-linecap:round;stroke-linejoin:round;stroke-miterlimit:10;" d="
							M295.819,141.631c0.034,1.329,0.26,2.601,0.667,3.802c1.72,5.05,6.49,8.68,12.12,8.68c5.88,0,10.83-3.95,12.34-9.35
							c0.281-0.999,0.432-2.049,0.459-3.132H295.819z"/>
						<path style="fill:#0B1011;" d="M321.404,140.679c-0.027,1.083-0.178,2.133-0.459,3.132l6.18-3.09l-0.053-0.042H321.404z"/>
						<path style="fill:#0B1011;" d="M290.182,140.679l-2.136,1.582c0,0,5.53,1.44,8.44,2.22c-0.406-1.201-0.633-2.472-0.667-3.802
							H290.182z"/>
						<path style="fill:#0B1011;" d="M302.639,141.631c0.579,3.67,3.747,6.48,7.58,6.48c3.833,0,7.001-2.81,7.58-6.48H302.639z"/>
						<path style="fill:#FFFFFF;" d="M310.024,141.631c0.838,1.065,2.488,1.799,4.411,1.799s3.573-0.734,4.41-1.799H310.024z"/>
						<g>
							<path style="fill:#0B1011;" d="M299.536,155.254c1.445-0.401,2.895-0.625,4.363-0.792c1.466-0.161,2.94-0.235,4.415-0.247
								c1.474,0.012,2.951,0.055,4.419,0.203c1.471,0.126,2.931,0.345,4.387,0.592c0.272,0.046,0.456,0.304,0.409,0.577
								c-0.046,0.272-0.304,0.456-0.577,0.41c-0.004-0.001-0.007-0.001-0.011-0.002l-0.014-0.003c-1.42-0.281-2.847-0.536-4.287-0.7
								c-1.438-0.186-2.886-0.267-4.335-0.32c-1.449-0.029-2.901,0.005-4.346,0.123c-1.44,0.122-2.895,0.31-4.279,0.653
								l-0.015,0.004c-0.138,0.034-0.277-0.05-0.312-0.188C299.321,155.428,299.402,155.291,299.536,155.254z"/>
						</g>
						<g>
							<path style="fill:#0B1011;" d="M241.379,135.504c1.684-2.138,3.708-3.962,5.992-5.431c2.281-1.458,4.884-2.494,7.623-2.764
								c2.735-0.25,5.536,0.293,7.999,1.484c2.477,1.176,4.674,2.853,6.604,4.756c0.197,0.194,0.199,0.51,0.006,0.707
								c-0.194,0.197-0.51,0.199-0.707,0.006c-0.001-0.001-0.005-0.005-0.006-0.006c-1.844-1.874-3.936-3.515-6.276-4.67
								c-2.33-1.17-4.957-1.717-7.554-1.522c-2.6,0.217-5.115,1.166-7.351,2.549c-2.233,1.385-4.264,3.164-5.917,5.2l-0.01,0.013
								c-0.09,0.11-0.252,0.127-0.362,0.038C241.31,135.775,241.292,135.615,241.379,135.504z"/>
						</g>
						<g>
							<path style="fill:#0B1011;" d="M294.349,132.732c1.521-2.059,3.44-3.775,5.655-5.051c2.213-1.257,4.775-1.997,7.355-1.91
								c1.286,0.036,2.562,0.25,3.798,0.599c1.22,0.39,2.421,0.854,3.537,1.478c2.26,1.198,4.275,2.786,6.117,4.524
								c0.201,0.189,0.21,0.506,0.021,0.707c-0.19,0.201-0.506,0.21-0.707,0.021c-0.001-0.001-0.006-0.005-0.007-0.007
								c-1.766-1.722-3.696-3.29-5.844-4.473c-1.061-0.617-2.198-1.075-3.352-1.466c-1.167-0.35-2.371-0.571-3.585-0.625
								c-2.435-0.122-4.873,0.535-7.021,1.709c-2.141,1.183-4.06,2.848-5.541,4.788l-0.013,0.017
								c-0.086,0.113-0.248,0.134-0.36,0.048C294.288,133.004,294.266,132.845,294.349,132.732z"/>
						</g>
					</g>
					<path style="fill:none;stroke:#0B1011;stroke-linecap:round;stroke-linejoin:round;stroke-miterlimit:10;" d="M238.366,228.115
						c0,0-13.171,30.878,6.878,50.634"/>
					<g>
						<path style="fill:#0B1011;" d="M250.148,305.158c2.783,8.72,6.989,16.97,12.393,24.325c0.163,0.223,0.116,0.536-0.107,0.699
							c-0.223,0.163-0.536,0.116-0.699-0.107c-0.001-0.002-0.004-0.005-0.005-0.007c-5.336-7.538-9.428-15.936-12.073-24.757
							c-0.041-0.136,0.036-0.28,0.173-0.321C249.963,304.949,250.105,305.025,250.148,305.158z"/>
					</g>
				</g>
				<path style="fill:none;stroke:#0B1011;stroke-width:2;stroke-linecap:round;stroke-linejoin:round;stroke-miterlimit:10;" d="
					M331.524,170.44c-1.53-0.14-3-0.65-4.41-1.49c0.56-0.33,1.11-0.71,1.65-1.15C329.684,168.45,330.664,169.32,331.524,170.44z"/>
				<g>
					<circle style="fill:#EF972D;" cx="288.268" cy="200.951" r="6"/>
					
						<circle style="fill:none;stroke:#0B1011;stroke-linecap:round;stroke-linejoin:round;stroke-miterlimit:10;" cx="288.268" cy="200.951" r="6"/>
					<path style="fill:#EF972D;" d="M284.506,188.187c-0.962,2.334-1.283,4.927-0.92,7.425c0.152,1.049,0.438,2.112,1.083,2.953
						c0.633,0.825,1.599,1.387,2.63,1.528c0.202,0.028,0.405,0.039,0.609,0.035c1.114-0.023,1.847-1.165,1.457-2.208
						c-0.002-0.006-0.004-0.011-0.006-0.017c-1.073-2.867-1.441-6.155-0.189-8.948C287.746,188.189,286.084,187.835,284.506,188.187
						z"/>
					<path style="fill:none;stroke:#0B1011;stroke-linecap:round;stroke-linejoin:round;stroke-miterlimit:10;" d="M284.506,188.187
						c-0.962,2.334-1.283,4.927-0.92,7.425c0.152,1.049,0.438,2.112,1.083,2.953c0.633,0.825,1.599,1.387,2.63,1.528
						c0.202,0.028,0.405,0.039,0.609,0.035c1.114-0.023,1.847-1.165,1.457-2.208c-0.002-0.006-0.004-0.011-0.006-0.017
						c-1.073-2.867-1.441-6.155-0.189-8.948C287.746,188.189,286.084,187.835,284.506,188.187z"/>
				</g>
				<g>
					<circle style="fill:#EF972D;" cx="309.122" cy="198.951" r="6"/>
					
						<circle style="fill:none;stroke:#0B1011;stroke-linecap:round;stroke-linejoin:round;stroke-miterlimit:10;" cx="309.122" cy="198.951" r="6"/>
					<path style="fill:#EF972D;" d="M312.884,186.186c0.962,2.334,1.283,4.927,0.92,7.425c-0.152,1.049-0.438,2.112-1.083,2.953
						c-0.633,0.825-1.6,1.387-2.63,1.528c-0.202,0.028-0.405,0.039-0.609,0.035c-1.114-0.023-1.847-1.165-1.457-2.208
						c0.002-0.006,0.004-0.011,0.006-0.017c1.073-2.867,1.441-6.155,0.189-8.948C309.644,186.189,311.306,185.835,312.884,186.186z"
						/>
					<path style="fill:none;stroke:#0B1011;stroke-linecap:round;stroke-linejoin:round;stroke-miterlimit:10;" d="M312.884,186.186
						c0.962,2.334,1.283,4.927,0.92,7.425c-0.152,1.049-0.438,2.112-1.083,2.953c-0.633,0.825-1.6,1.387-2.63,1.528
						c-0.202,0.028-0.405,0.039-0.609,0.035c-1.114-0.023-1.847-1.165-1.457-2.208c0.002-0.006,0.004-0.011,0.006-0.017
						c1.073-2.867,1.441-6.155,0.189-8.948C309.644,186.189,311.306,185.835,312.884,186.186z"/>
				</g>
				<g>
					<path style="fill:#0B1011;" d="M335.574,132.29c0,12.63-4.19,23.29-9.92,26.66c-0.62,0.37-1.26,0.65-1.92,0.83
						c-1.17-7.17-1.7-19.06,2.51-28.69c4.78-10.92,0.81-21.58-1.2-25.78c0.2,0.1,0.41,0.21,0.61,0.33
						C331.384,109.01,335.574,119.67,335.574,132.29z"/>
					<path style="fill:none;stroke:#0B1011;stroke-width:2;stroke-linecap:round;stroke-linejoin:round;stroke-miterlimit:10;" d="
						M335.574,132.29c0,12.63-4.19,23.29-9.92,26.66c-0.62,0.37-1.26,0.65-1.92,0.83c-1.17-7.17-1.7-19.06,2.51-28.69
						c4.78-10.92,0.81-21.58-1.2-25.78c0.2,0.1,0.41,0.21,0.61,0.33C331.384,109.01,335.574,119.67,335.574,132.29z"/>
					<path style="fill:#F7E5B4;" d="M340.754,132.29c0,1.01-0.02,2.01-0.06,2.99c-0.04,0.99-0.09,1.97-0.17,2.93
						c-0.02,0.33-0.05,0.66-0.08,0.98c-0.03,0.34-0.06,0.68-0.1,1.01c-0.04,0.44-0.09,0.88-0.15,1.31
						c-0.07,0.58-0.15,1.15-0.23,1.71c-0.06,0.44-0.13,0.88-0.2,1.31c-0.02,0.09-0.04,0.19-0.05,0.28
						c-0.07,0.38-0.14,0.76-0.21,1.14c-0.1,0.54-0.21,1.07-0.33,1.6c-0.06,0.31-0.13,0.61-0.2,0.91c-0.55,2.37-1.22,4.6-1.99,6.67
						c-0.14,0.38-0.28,0.75-0.43,1.11c-0.07,0.19-0.15,0.38-0.23,0.57c-0.12,0.3-0.25,0.59-0.38,0.88c-0.29,0.66-0.59,1.3-0.91,1.92
						c-0.12,0.25-0.25,0.49-0.38,0.72c-0.17,0.32-0.34,0.63-0.52,0.93c-0.16,0.3-0.34,0.59-0.51,0.87
						c-0.02,0.03-0.04,0.06-0.05,0.08c-0.18,0.27-0.35,0.54-0.53,0.8c-0.18,0.28-0.37,0.55-0.57,0.82
						c-0.19,0.27-0.38,0.52-0.58,0.77c-0.39,0.5-0.8,0.97-1.21,1.41c-0.23,0.26-0.48,0.51-0.72,0.74c-0.39,0.37-0.79,0.72-1.19,1.04
						c0,0,0,0.01-0.01,0.01c-1.81-1.31-3.4-1.81-3.4-1.81c-0.41-0.62-1.09-2.91-1.63-6.21c0.66-0.18,1.3-0.46,1.92-0.83
						c5.73-3.37,9.92-14.03,9.92-26.66c0-12.62-4.19-23.28-9.92-26.65c-0.2-0.12-0.41-0.23-0.61-0.33
						c-0.58-1.21-0.99-1.88-0.99-1.88c-0.76-2.13-3.7-5.09-7.2-8.04c1.57-0.84,3.21-1.29,4.91-1.29c1.86,0,3.65,0.54,5.35,1.54
						C334.994,100.28,340.754,114.93,340.754,132.29z"/>
					<path style="fill:none;stroke:#0B1011;stroke-width:2;stroke-linecap:round;stroke-linejoin:round;stroke-miterlimit:10;" d="
						M340.754,132.29c0,1.01-0.02,2.01-0.06,2.99c-0.04,0.99-0.09,1.97-0.17,2.93c-0.02,0.33-0.05,0.66-0.08,0.98
						c-0.03,0.34-0.06,0.68-0.1,1.01c-0.04,0.44-0.09,0.88-0.15,1.31c-0.07,0.58-0.15,1.15-0.23,1.71c-0.06,0.44-0.13,0.88-0.2,1.31
						c-0.02,0.09-0.04,0.19-0.05,0.28c-0.07,0.38-0.14,0.76-0.21,1.14c-0.1,0.54-0.21,1.07-0.33,1.6c-0.06,0.31-0.13,0.61-0.2,0.91
						c-0.55,2.37-1.22,4.6-1.99,6.67c-0.14,0.38-0.28,0.75-0.43,1.11c-0.07,0.19-0.15,0.38-0.23,0.57c-0.12,0.3-0.25,0.59-0.38,0.88
						c-0.29,0.66-0.59,1.3-0.91,1.92c-0.12,0.25-0.25,0.49-0.38,0.72c-0.17,0.32-0.34,0.63-0.52,0.93c-0.16,0.3-0.34,0.59-0.51,0.87
						c-0.02,0.03-0.04,0.06-0.05,0.08c-0.18,0.27-0.35,0.54-0.53,0.8c-0.18,0.28-0.37,0.55-0.57,0.82
						c-0.19,0.27-0.38,0.52-0.58,0.77c-0.39,0.5-0.8,0.97-1.21,1.41c-0.23,0.26-0.48,0.51-0.72,0.74c-0.39,0.37-0.79,0.72-1.19,1.04
						c0,0,0,0.01-0.01,0.01c-1.81-1.31-3.4-1.81-3.4-1.81c-0.41-0.62-1.09-2.91-1.63-6.21c0.66-0.18,1.3-0.46,1.92-0.83
						c5.73-3.37,9.92-14.03,9.92-26.66c0-12.62-4.19-23.28-9.92-26.65c-0.2-0.12-0.41-0.23-0.61-0.33
						c-0.58-1.21-0.99-1.88-0.99-1.88c-0.76-2.13-3.7-5.09-7.2-8.04c1.57-0.84,3.21-1.29,4.91-1.29c1.86,0,3.65,0.54,5.35,1.54
						C334.994,100.28,340.754,114.93,340.754,132.29z"/>
					<path style="fill:#D94328;" d="M351.434,132.29c0,21.1-8.5,38.2-18.98,38.2c-0.31,0-0.62-0.02-0.93-0.05
						c-0.86-1.12-1.84-1.99-2.76-2.64c0.01,0,0.01-0.01,0.01-0.01c0.4-0.31,0.8-0.66,1.19-1.04c0.24-0.23,0.49-0.48,0.72-0.74
						c0.42-0.44,0.82-0.91,1.21-1.41c0.2-0.25,0.39-0.5,0.58-0.77c0.2-0.27,0.39-0.54,0.57-0.82c0.18-0.26,0.35-0.53,0.53-0.8
						c0.01-0.02,0.03-0.05,0.05-0.08c0.17-0.28,0.35-0.57,0.51-0.87c0.18-0.3,0.35-0.61,0.52-0.93c0.13-0.23,0.26-0.47,0.38-0.72
						c0.32-0.62,0.62-1.26,0.91-1.92c0.13-0.29,0.26-0.58,0.38-0.88c0.08-0.19,0.16-0.38,0.23-0.57c0.15-0.36,0.29-0.73,0.43-1.11
						c0.77-2.07,1.44-4.3,1.99-6.67c0.07-0.3,0.14-0.6,0.2-0.91c0.12-0.53,0.23-1.06,0.33-1.6c0.07-0.38,0.14-0.76,0.21-1.14
						c0.01-0.09,0.03-0.19,0.05-0.28c0.07-0.43,0.14-0.87,0.2-1.31c0.08-0.56,0.16-1.13,0.23-1.71c0.06-0.43,0.11-0.87,0.15-1.31
						c0.04-0.33,0.07-0.67,0.1-1.01c0.03-0.32,0.06-0.65,0.08-0.98c0.08-0.96,0.13-1.94,0.17-2.93c0.04-0.98,0.06-1.98,0.06-2.99
						c0-17.36-5.76-32.01-13.64-36.65c1.69-1.01,3.48-1.54,5.34-1.54C342.934,94.1,351.434,111.2,351.434,132.29z"/>
					<path style="fill:none;stroke:#0B1011;stroke-width:2;stroke-linecap:round;stroke-linejoin:round;stroke-miterlimit:10;" d="
						M351.434,132.29c0,21.1-8.5,38.2-18.98,38.2c-0.31,0-0.62-0.02-0.93-0.05c-0.86-1.12-1.84-1.99-2.76-2.64
						c0.01,0,0.01-0.01,0.01-0.01c0.4-0.31,0.8-0.66,1.19-1.04c0.24-0.23,0.49-0.48,0.72-0.74c0.42-0.44,0.82-0.91,1.21-1.41
						c0.2-0.25,0.39-0.5,0.58-0.77c0.2-0.27,0.39-0.54,0.57-0.82c0.18-0.26,0.35-0.53,0.53-0.8c0.01-0.02,0.03-0.05,0.05-0.08
						c0.17-0.28,0.35-0.57,0.51-0.87c0.18-0.3,0.35-0.61,0.52-0.93c0.13-0.23,0.26-0.47,0.38-0.72c0.32-0.62,0.62-1.26,0.91-1.92
						c0.13-0.29,0.26-0.58,0.38-0.88c0.08-0.19,0.16-0.38,0.23-0.57c0.15-0.36,0.29-0.73,0.43-1.11c0.77-2.07,1.44-4.3,1.99-6.67
						c0.07-0.3,0.14-0.6,0.2-0.91c0.12-0.53,0.23-1.06,0.33-1.6c0.07-0.38,0.14-0.76,0.21-1.14c0.01-0.09,0.03-0.19,0.05-0.28
						c0.07-0.43,0.14-0.87,0.2-1.31c0.08-0.56,0.16-1.13,0.23-1.71c0.06-0.43,0.11-0.87,0.15-1.31c0.04-0.33,0.07-0.67,0.1-1.01
						c0.03-0.32,0.06-0.65,0.08-0.98c0.08-0.96,0.13-1.94,0.17-2.93c0.04-0.98,0.06-1.98,0.06-2.99c0-17.36-5.76-32.01-13.64-36.65
						c1.69-1.01,3.48-1.54,5.34-1.54C342.934,94.1,351.434,111.2,351.434,132.29z"/>
					<g>
						<path style="fill:#D94328;" d="M201.054,145.83c0,19.84-8.8,36.5-20.69,41.19c-2.19,0.86-4.47,1.32-6.83,1.32
							c-15.19,0-27.51-19.03-27.51-42.51c0-23.48,12.32-42.51,27.51-42.51c1.98,0,3.91,0.32,5.78,0.94
							C191.734,108.36,201.054,125.41,201.054,145.83z"/>
						<path style="fill:#F7E5B4;" d="M210.264,145.24c0,24.45-10.05,44.27-22.46,44.27c-2.61,0-5.11-0.88-7.44-2.49
							c11.89-4.69,20.69-21.35,20.69-41.19c0-20.42-9.32-37.47-21.74-41.57c2.62-2.11,5.48-3.28,8.49-3.28
							C200.214,100.98,210.264,120.8,210.264,145.24z"/>
						<path style="fill:none;stroke:#0B1011;stroke-width:2;stroke-linecap:round;stroke-linejoin:round;stroke-miterlimit:10;" d="
							M201.054,145.83c0,19.84-8.8,36.5-20.69,41.19c-2.19,0.86-4.47,1.32-6.83,1.32c-15.19,0-27.51-19.03-27.51-42.51
							c0-23.48,12.32-42.51,27.51-42.51c1.98,0,3.91,0.32,5.78,0.94C191.734,108.36,201.054,125.41,201.054,145.83z"/>
						<path style="fill:none;stroke:#0B1011;stroke-width:2;stroke-linecap:round;stroke-linejoin:round;stroke-miterlimit:10;" d="
							M210.264,145.24c0,24.45-10.05,44.27-22.46,44.27c-2.61,0-5.11-0.88-7.44-2.49c11.89-4.69,20.69-21.35,20.69-41.19
							c0-20.42-9.32-37.47-21.74-41.57c2.62-2.11,5.48-3.28,8.49-3.28C200.214,100.98,210.264,120.8,210.264,145.24z"/>
						<ellipse style="fill:#D94328;" cx="154.732" cy="144.659" rx="14.707" ry="30.951"/>
						
							<ellipse style="fill:none;stroke:#0B1011;stroke-width:2;stroke-linecap:round;stroke-linejoin:round;stroke-miterlimit:10;" cx="154.732" cy="144.659" rx="14.707" ry="30.951"/>
					</g>
					<path style="fill:#D94328;" d="M175.146,108.439l-0.313,0.169c-3.295,1.78-7.279,1.715-10.516-0.169l0,0v-22.39h10.829V108.439
						z"/>
					<path style="fill:none;stroke:#0B1011;stroke-width:2;stroke-linecap:round;stroke-linejoin:round;stroke-miterlimit:10;" d="
						M175.146,108.439l-0.313,0.169c-3.295,1.78-7.279,1.715-10.516-0.169l0,0v-22.39h10.829V108.439z"/>
					<path style="fill:#0B1011;" d="M167.42,160.956c0,0,2.229,21.401-10.701,18.949l-2.341-4.124
						C154.378,175.781,165.971,173.886,167.42,160.956z"/>
					<path style="fill:#0B1011;" d="M198.296,165.749c0,0-0.446,27.086-17.723,22.405l2.564-2.341
						C183.136,185.813,196.735,177.899,198.296,165.749z"/>
					<path style="fill:#D94328;" d="M318.714,96.634l0.313,0.169c3.295,1.78,7.279,1.715,10.516-0.169l0,0v-22.39h-10.829V96.634z"
						/>
					<path style="fill:none;stroke:#0B1011;stroke-width:2;stroke-linecap:round;stroke-linejoin:round;stroke-miterlimit:10;" d="
						M318.714,96.634l0.313,0.169c3.295,1.78,7.279,1.715,10.516-0.169l0,0v-22.39h-10.829V96.634z"/>
					<path style="fill:#D94328;" d="M317.121,73.683h14.837c-5.959-21.755-29.337-58.306-82.697-55.435c0,0-74.936,0.3-87.872,71.24
						l9.367-0.943l6.022,0.554c0,0,27.432-65.793,87.202-60.887C263.981,28.212,308.673,30.501,317.121,73.683z"/>
					<path style="fill:none;stroke:#0B1011;stroke-width:2;stroke-linecap:round;stroke-linejoin:round;stroke-miterlimit:10;" d="
						M316.818,73.683h15.393c-3.632-16.91-22.706-58.677-82.949-55.435c0,0-74.936,0.3-87.872,71.24l9.367-0.943l6.022,0.554
						c0,0,27.432-65.793,87.202-60.887C263.981,28.212,308.371,30.501,316.818,73.683z"/>
					<g>
						<path style="fill:#0B1011;" d="M174.083,82.122c1.44-3.861,3.255-7.539,5.241-11.127c1.991-3.584,4.204-7.043,6.607-10.365
							c4.808-6.639,10.417-12.718,16.767-17.92c6.347-5.198,13.434-9.518,21.025-12.655c3.79-1.581,7.704-2.855,11.682-3.873
							c3.985-0.991,8.036-1.707,12.117-2.156c2.046-0.212,4.086-0.371,6.114-0.537c2.074-0.183,4.129-0.139,6.184-0.049
							c4.105,0.207,8.19,0.729,12.217,1.542c8.047,1.619,15.909,4.401,23.005,8.595c7.097,4.17,13.33,9.883,17.907,16.758
							c4.602,6.866,7.479,14.78,8.931,22.873c0.049,0.272-0.132,0.532-0.404,0.58c-0.272,0.049-0.532-0.132-0.58-0.404l0-0.001
							c-1.413-7.986-4.226-15.772-8.729-22.527c-4.48-6.763-10.587-12.393-17.574-16.522c-6.984-4.152-14.752-6.925-22.718-8.548
							c-3.986-0.815-8.033-1.342-12.094-1.557c-2.027-0.094-4.071-0.141-6.072,0.031c-2.047,0.163-4.084,0.316-6.105,0.521
							c-4.048,0.435-8.068,1.134-12.021,2.107c-3.946,0.999-7.83,2.253-11.591,3.811c-7.535,3.092-14.575,7.358-20.889,12.503
							c-6.317,5.148-11.907,11.174-16.704,17.764c-2.397,3.297-4.608,6.733-6.597,10.292c-1.981,3.558-3.803,7.232-5.231,11.031
							l-0.004,0.011c-0.05,0.133-0.198,0.2-0.331,0.15C174.1,82.403,174.032,82.255,174.083,82.122z"/>
					</g>
				</g>
			</g>
		</g>
	</g>
</g>
</svg>
